<?xml version="1.0" standalone="no"?>
<!DOCTYPE svg PUBLIC "-//W3C//DTD SVG 1.1//EN" "http://www.w3.org/Graphics/SVG/1.1/DTD/svg11.dtd" >
<svg xmlns="http://www.w3.org/2000/svg" xmlns:xlink="http://www.w3.org/1999/xlink" version="1.1">
<metadata></metadata>
<defs>
<font id="snap_itcregular" horiz-adv-x="1024" >
<font-face units-per-em="2048" ascent="1556" descent="-492" />
<missing-glyph horiz-adv-x="887" />
<glyph horiz-adv-x="0" />
<glyph horiz-adv-x="682" />
<glyph unicode=" "  horiz-adv-x="887" />
<glyph unicode="&#x09;" horiz-adv-x="887" />
<glyph unicode="&#xa0;" horiz-adv-x="887" />
<glyph unicode="!" horiz-adv-x="1212" d="M8 1511l1319 -55l-369 -76l-178 -848l224 -118l-793 -29l160 156l-78 815zM193 143q0 73 106 117.5t283 44.5q179 0 287 -45t108 -117q0 -73 -103.5 -114t-291.5 -41q-171 0 -280 44.5t-109 110.5z" />
<glyph unicode="&#x22;" horiz-adv-x="1014" d="M59 1430l426 63l-59 -639l-260 25zM526 1430l428 63l-61 -639l-260 25z" />
<glyph unicode="#" horiz-adv-x="1849" d="M37 100l76 578l39 -113l213 -10l16 352l-182 2l-158 -164l70 590l157 -229l121 6l10 238l-206 98l794 18l-156 -112l-38 -221l352 16l29 225l-138 135l598 -16l-200 -84l-4 -244l229 11l102 204l43 -606l-84 123l-290 2l-3 -389l222 -10l106 174l-8 -510l-102 174 l-218 -6l-2 -199l193 -129l-782 41l180 82l24 195l-383 -9l-30 -178l188 -160l-647 23l178 88l8 219l-223 -4zM694 543l373 -19l47 377l-358 4z" />
<glyph unicode="$" horiz-adv-x="1634" d="M0 1030q0 189 158.5 312.5t404.5 123.5q24 0 55.5 -2t81.5 -8l-22 156l-211 145l729 -45l-205 -96l-76 -211q70 -26 140.5 -63.5t148.5 -90.5l37 201l166 -528q-130 119 -237 180t-185 61q-53 0 -83 -27.5t-30 -76.5q0 -83 78 -132.5t281 -88.5q221 -44 312 -119.5 t91 -208.5q0 -227 -189.5 -368.5t-518.5 -157.5l43 -152l157 -86l-653 -49l176 123l47 176q-121 18 -237.5 66.5t-233.5 128.5v-228l-164 520q121 -98 234 -148t213 -50q102 0 160.5 45.5t58.5 124.5q0 87 -56 133t-253 90q-228 50 -323 131t-95 219z" />
<glyph unicode="%" horiz-adv-x="1661" d="M-2 100l293 84l762 1159l-199 152l766 -96l-287 -74l-676 -1233l150 -123zM104 850q0 128 48 256t135 231q56 67 121 104.5t122 37.5q91 0 142 -80t51 -223q0 -115 -46 -232t-132 -219q-59 -69 -124.5 -107t-123.5 -38q-86 0 -139.5 73.5t-53.5 196.5zM334 1128 q0 -3 1 -9t1 -9q68 0 112 42.5t44 109.5q-1 8 -2.5 18.5t-4.5 19.5q-70 -20 -110.5 -66.5t-40.5 -105.5zM965 260q0 132 46.5 261.5t129.5 226.5q53 63 118.5 99t126.5 36q89 0 140 -76.5t51 -210.5q0 -119 -47 -237t-135 -224q-56 -66 -120.5 -102.5t-123.5 -36.5 q-84 0 -135 72t-51 192zM1167 172q0 -10 0.5 -15.5t1.5 -10.5q82 19 128 65.5t46 107.5v5q-2 0 -7.5 1t-8.5 1q-66 0 -113 -45.5t-47 -108.5z" />
<glyph unicode="&#x26;" horiz-adv-x="1651" d="M45 457q0 147 107 245.5t299 128.5q-161 26 -254 111t-93 205q0 164 162.5 262t438.5 98q164 0 303 -44t249 -132l228 119l-371 -442q-38 151 -124.5 230t-213.5 79q-99 0 -151 -46t-52 -134q0 -107 43 -163t125 -56h19t12 2l66 182l133 -547l-144 156 q-87 -28 -134.5 -91t-47.5 -151q0 -108 64.5 -166.5t183.5 -58.5q154 0 255 80.5t101 201.5q0 87 -45.5 165t-140.5 155l555 55l-256 -123q126 -66 188 -146.5t62 -178.5q0 -97 -52 -180.5t-151 -145.5q-116 -73 -264.5 -112.5t-310.5 -39.5q-364 0 -576.5 130.5 t-212.5 351.5z" />
<glyph unicode="'" horiz-adv-x="547" d="M59 1430l426 63l-59 -639l-260 25z" />
<glyph unicode="(" horiz-adv-x="887" d="M119 -250l272 117q-139 151 -205.5 327.5t-66.5 391.5q0 245 85.5 465t266.5 442l-315 121l716 39q-129 -238 -191.5 -478.5t-62.5 -506.5q0 -277 61 -509.5t185 -434.5z" />
<glyph unicode=")" horiz-adv-x="887" d="M14 -299q130 238 192 478.5t62 506.5q0 274 -60.5 507.5t-184.5 436.5l745 -24l-272 -119q138 -151 205 -328t67 -391q0 -245 -85.5 -465.5t-266.5 -441.5l315 -121z" />
<glyph unicode="*" horiz-adv-x="1151" d="M164 1014l69 278l295 -129l-198 287l311 96l-10 -260l174 187l188 -209l-344 -136l342 -41l-184 -315l-205 297l2 -364l-287 151l162 168z" />
<glyph unicode="+" horiz-adv-x="1706" d="M254 496v231h481v494h238v-494h479v-231h-479v-496h-238v496h-481z" />
<glyph unicode="," horiz-adv-x="825" d="M127 168q0 66 82.5 115t202.5 49q118 0 201 -49.5t83 -114.5q0 -25 -14 -55.5t-43 -67.5l-410 -524l125 485q-104 18 -165.5 62t-61.5 100z" />
<glyph unicode="-" horiz-adv-x="780" d="M70 872l641 -12l-27 -307l-551 -107z" />
<glyph unicode="." horiz-adv-x="825" d="M127 170q0 65 82.5 113.5t202.5 48.5q119 0 201.5 -49t82.5 -113q0 -66 -84 -118t-200 -52q-118 0 -201.5 51.5t-83.5 118.5z" />
<glyph unicode="/" horiz-adv-x="1108" d="M31 -137l815 1835l221 -174l-940 -1760z" />
<glyph unicode="0" horiz-adv-x="1726" d="M55 702q0 144 54.5 273t158.5 231q129 128 301.5 197.5t360.5 69.5q156 0 283 -50.5t231 -152.5q106 -105 167.5 -257t61.5 -311q0 -98 -25.5 -187.5t-76.5 -170.5q-114 -175 -318.5 -279t-437.5 -104q-120 0 -226 31t-198 92q-159 106 -247.5 268.5t-88.5 349.5z M854 1040q0 -89 69 -155t162 -66q73 0 140 40.5t94 101.5q-73 126 -176.5 194.5t-229.5 72.5q-29 -44 -44 -92t-15 -96z" />
<glyph unicode="1" horiz-adv-x="1012" d="M-80 1124l1024 379l-239 -1351l256 -172l-967 45l276 116l-34 957z" />
<glyph unicode="2" horiz-adv-x="1536" d="M-86 -41l694 862q84 103 109.5 158.5t25.5 112.5q0 58 -35.5 92.5t-97.5 34.5q-111 0 -217.5 -98t-204.5 -290l-221 590l197 -213q170 143 332.5 211t337.5 68q259 0 414 -116.5t155 -309.5q0 -149 -78.5 -259t-290.5 -241l-561 -344l889 229l154 310l-113 -705z" />
<glyph unicode="3" horiz-adv-x="1651" d="M-35 537q168 -161 345 -245.5t343 -84.5q133 0 213 69.5t80 184.5q0 81 -42 125.5t-120 44.5q-42 0 -82.5 -15.5t-78.5 -46.5l-41 -172l-144 494l129 -90q194 42 277.5 108t83.5 174q0 80 -50 124t-141 44q-132 0 -259.5 -100.5t-231.5 -286.5l-170 574l133 -146 q185 101 367.5 152t359.5 51q243 0 398 -95t155 -239q0 -105 -103 -194t-282 -135q10 1 21 1.5t34 0.5q198 0 329.5 -106t131.5 -261q0 -226 -204 -363t-548 -137q-195 0 -362.5 32.5t-308.5 96.5v-131z" />
<glyph unicode="4" horiz-adv-x="1774" d="M-37 379l766 1028l907 74l-161 -99l-119 -596l291 121l79 168l-10 -786l-84 264l-295 -72l80 -377l195 -96l-928 -43l170 162l47 315zM532 680l394 94l-11 359z" />
<glyph unicode="5" horiz-adv-x="1696" d="M61 78l140 510q109 -167 218.5 -243.5t237.5 -76.5q117 0 182.5 54.5t65.5 150.5q0 122 -89.5 188t-254.5 66q-144 0 -267.5 -28.5t-227.5 -86.5l167 869l1141 -76l53 106l70 -628l-96 145l-877 180l-135 -297q65 27 148.5 39.5t212.5 12.5q414 0 646 -133.5t232 -368.5 q0 -226 -210 -362t-564 -136q-192 0 -355.5 57t-301.5 173z" />
<glyph unicode="6" horiz-adv-x="1722" d="M59 682q0 152 63.5 293.5t184.5 259.5q132 129 275.5 193.5t298.5 64.5q106 0 221.5 -31t240.5 -94l234 129l-279 -383q-86 78 -179.5 116t-196.5 38q-158 0 -268.5 -105t-110.5 -254q0 -41 11 -75.5t34 -63.5q90 94 207 139t268 45q275 0 446.5 -120.5t171.5 -309.5 q0 -76 -37.5 -154t-107.5 -145q-134 -126 -310.5 -194t-371.5 -68q-184 0 -333.5 55t-256.5 162q-97 98 -151 229t-54 273zM666 508q36 -32 78 -48t90 -16q90 0 155.5 62.5t65.5 146.5q0 32 -13.5 57.5t-42.5 47.5q-122 -43 -205 -105t-128 -145z" />
<glyph unicode="7" horiz-adv-x="1589" d="M31 1475l155 -144l1411 150l-510 -1387l189 -141l-1118 61l260 97l684 1019l-776 -262l-78 -309z" />
<glyph unicode="8" horiz-adv-x="1741" d="M51 467q0 170 140.5 303t377.5 184q-116 48 -174.5 110t-58.5 138q0 125 150.5 215t371.5 90q230 0 377 -85t147 -214q0 -69 -56 -131t-165 -112q242 -37 385.5 -164t143.5 -301q0 -237 -234 -383t-618 -146q-364 0 -575.5 134t-211.5 362zM530 1223q27 -44 61.5 -64 t82.5 -20q66 0 118 47.5t52 105.5q0 18 -7.5 34t-23.5 32q-89 -11 -159.5 -45t-123.5 -90zM1063 662q0 -80 67 -137.5t160 -57.5q41 0 77 19t69 59q-59 90 -139 152t-179 94q-28 -30 -41.5 -61.5t-13.5 -67.5z" />
<glyph unicode="9" horiz-adv-x="1700" d="M29 926q0 90 39 177t112 159q119 115 280 175t353 60q185 0 347.5 -64t285.5 -186q97 -96 148 -214t51 -251q0 -153 -64.5 -303t-179.5 -264q-123 -121 -273 -183.5t-319 -62.5q-131 0 -254 40.5t-240 121.5l-8 -168l-174 483q135 -113 280 -171t294 -58q199 0 334 108.5 t135 264.5q0 7 -2 32t-3 37q-146 -83 -297.5 -126.5t-293.5 -43.5q-243 0 -397 123.5t-154 313.5zM727 829q0 -24 8 -45.5t22 -37.5q132 7 227 46t153 109q-35 54 -85 83.5t-106 29.5q-91 0 -155 -54t-64 -131z" />
<glyph unicode=":" horiz-adv-x="825" d="M127 170q0 65 82.5 113.5t202.5 48.5q119 0 201.5 -49t82.5 -113q0 -66 -84 -118t-200 -52q-118 0 -201.5 51.5t-83.5 118.5zM127 688q0 65 83 114.5t202 49.5q118 0 201 -49.5t83 -114.5q0 -66 -83 -117t-201 -51q-119 0 -202 50.5t-83 117.5z" />
<glyph unicode=";" horiz-adv-x="825" d="M127 168q0 66 82.5 115t202.5 49q118 0 201 -49.5t83 -114.5q0 -25 -14 -55.5t-43 -67.5l-410 -524l125 485q-104 18 -165.5 62t-61.5 100zM127 688q0 65 83 114.5t202 49.5q118 0 201 -49.5t83 -114.5q0 -66 -83 -117t-201 -51q-119 0 -202 50.5t-83 117.5z" />
<glyph unicode="&#x3c;" d="M68 539v307l886 483v-362l-499 -277l499 -274v-363z" />
<glyph unicode="=" horiz-adv-x="1706" d="M254 272v230h1198v-230h-1198zM254 719v231h1198v-231h-1198z" />
<glyph unicode="&#x3e;" d="M68 53v365l501 274l-499 277l-2 360l886 -485v-305z" />
<glyph unicode="?" horiz-adv-x="1737" d="M23 1446l157 -98q178 83 355.5 124t359.5 41q205 0 371.5 -55.5t275.5 -159.5q52 -50 80.5 -112.5t28.5 -126.5q0 -185 -150 -292.5t-420 -115.5l-73 -190l221 -123l-805 78l156 84l-64 288q316 25 442.5 92t126.5 201q0 101 -61 156t-174 55q-150 0 -302.5 -116 t-291.5 -336zM395 143q0 65 111.5 113.5t275.5 48.5q168 0 283 -49t115 -113t-113.5 -109.5t-284.5 -45.5q-159 0 -273 48t-114 107z" />
<glyph unicode="@" horiz-adv-x="1935" d="M39 725q0 368 274.5 587.5t739.5 219.5q388 0 620 -169.5t232 -447.5q0 -271 -175 -416t-540 -177l57 223q-72 -109 -156 -164t-180 -55q-140 0 -227.5 105t-87.5 276q0 182 89.5 300.5t223.5 118.5q106 0 188 -51t150 -160l-45 211l311 -28l-104 -47l27 -551 q109 47 161 138.5t52 238.5q0 214 -149.5 325t-438.5 111q-296 0 -457.5 -151.5t-161.5 -428.5q0 -301 165.5 -468t463.5 -167q145 0 304.5 50t326.5 147l84 -373l-125 123q-164 -58 -320.5 -87.5t-304.5 -29.5q-222 0 -412 61.5t-323 174.5q-133 114 -197.5 252.5 t-64.5 308.5zM1008 836q0 -52 31.5 -85.5t80.5 -33.5q18 0 32.5 6t27.5 18q-24 60 -59 100t-85 64q-14 -13 -21 -30t-7 -39z" />
<glyph unicode="A" horiz-adv-x="1741" d="M-92 6l231 172l307 1194l-174 113l1176 -39l-274 -98l481 -1074l190 -57l-872 -270l223 299l-63 221l-324 -25l-94 -258l141 -110zM764 698l274 93l-139 399z" />
<glyph unicode="B" horiz-adv-x="1591" d="M-137 1491l1022 -53q295 -15 411.5 -75t116.5 -189q0 -109 -80.5 -186.5t-245.5 -127.5q225 -14 342 -100t117 -238q0 -212 -168 -322.5t-561 -152.5l-883 -92l416 195l-200 1210zM575 303q153 90 227.5 163t74.5 132q0 38 -30.5 63t-76.5 25q-32 0 -72 -8.5t-84 -24.5z M621 1266l26 -287q112 13 181 51.5t69 85.5q0 68 -73 107.5t-203 42.5z" />
<glyph unicode="C" horiz-adv-x="1610" d="M47 711q0 205 87 374.5t247 276.5q107 71 230.5 106t267.5 35q131 0 244 -41t212 -125l58 166l102 -547q-66 96 -156 145.5t-194 49.5q-120 0 -193 -70.5t-73 -185.5q0 -122 91 -204.5t228 -82.5q84 0 175 29.5t196 89.5l-107 -694l-41 284q-145 -172 -319.5 -262 t-364.5 -90q-125 0 -243 51.5t-213 149.5q-113 114 -173.5 255.5t-60.5 289.5z" />
<glyph unicode="D" horiz-adv-x="1587" d="M-109 -35l431 160l-158 1196l-273 182l1037 -110q284 -31 448 -201.5t164 -435.5q0 -330 -233.5 -520.5t-673.5 -221.5zM582 489q135 74 207.5 175.5t72.5 218.5q0 102 -49.5 188.5t-146.5 155.5z" />
<glyph unicode="E" horiz-adv-x="1661" d="M-111 27l433 151l-154 1098l-279 108l1567 107l98 -459l-163 168l-482 -2l-73 -305l344 80l102 157l39 -692l-109 172l-305 41l-121 -325l574 -72l266 362l-90 -661z" />
<glyph unicode="F" horiz-adv-x="1546" d="M-70 33l226 149l123 1002l-349 166l1520 143l127 -727l-229 391l-594 -41l71 -328l254 109l107 150l190 -838l-213 295l-358 20l113 -442l202 -133z" />
<glyph unicode="G" horiz-adv-x="1804" d="M45 760q0 171 79.5 312.5t229.5 238.5q140 91 310.5 136.5t371.5 45.5q149 0 282.5 -35.5t242.5 -103.5l49 135l78 -543q-129 154 -261.5 226.5t-283.5 72.5q-204 0 -328.5 -135t-124.5 -358q0 -198 115 -321.5t299 -123.5q4 0 25 1.5t36 2.5l88 291l-211 -24l-65 -123 l-27 612l103 -143l721 -64l-148 -141l60 -520q-166 -123 -344 -183.5t-373 -60.5q-159 0 -308 46t-274 134q-164 117 -253 279.5t-89 345.5z" />
<glyph unicode="H" horiz-adv-x="1802" d="M-10 35l139 98l117 1204l-236 72l748 107l-150 -127l49 -467l261 -97l67 527l-127 121l954 -29l-258 -133l80 -1106l174 -109l-1007 -37l155 125l17 371l-283 -43v-438l150 -99z" />
<glyph unicode="I" horiz-adv-x="1108" d="M-23 1473l1207 -101l-449 -129l203 -995l311 -197l-1226 -119l206 154l99 1118z" />
<glyph unicode="J" horiz-adv-x="1667" d="M20 401q0 145 98.5 241t301.5 149l-397 59l796 106q-88 -71 -132 -143t-44 -145q0 -81 48 -130t128 -49q123 0 194.5 90t71.5 246q0 130 -39.5 232.5t-123.5 189.5l-510 103l1265 163l-452 -260q189 -113 291 -269t102 -331q0 -304 -250.5 -493t-658.5 -189 q-306 0 -497.5 122t-191.5 308z" />
<glyph unicode="K" horiz-adv-x="1708" d="M-33 47l180 133l95 1088l-195 125l805 98l-225 -174l67 -424l353 420l-99 121l733 -27l-520 -418l688 -1012l-796 97l159 104l-464 477l-52 -10l109 -532l168 -179z" />
<glyph unicode="L" horiz-adv-x="1479" d="M-55 1341l977 107l-256 -186l170 -920l358 182l115 264l157 -876l-131 154l-1351 -74l184 129l49 1139z" />
<glyph unicode="M" horiz-adv-x="2251" d="M25 45l172 98l114 1123l-225 100l944 115l127 -547l121 487l915 -53l-276 -96l115 -1100l266 -152l-1204 43l219 123l192 889l-446 -735l-383 821l153 -1067l322 -149z" />
<glyph unicode="N" horiz-adv-x="1929" d="M12 45l170 115l72 1102l-242 98l840 119l514 -1119l-90 971l-162 109l840 -80l-156 -68l-160 -1171l226 -90l-523 -41l-727 1034l250 -938l264 -145z" />
<glyph unicode="O" horiz-adv-x="1712" d="M47 702q0 143 55 272t160 232q129 128 300.5 197.5t359.5 69.5q118 0 220.5 -29.5t188.5 -87.5q154 -104 244 -279.5t90 -369.5q0 -108 -27 -201.5t-82 -173.5q-116 -170 -319 -270.5t-430 -100.5q-121 0 -227.5 31t-196.5 92q-160 108 -248 269.5t-88 348.5zM846 1040 q0 -90 68.5 -155.5t162.5 -65.5q74 0 140.5 40t95.5 102q-72 124 -176.5 193t-231.5 75q-29 -43 -44 -91t-15 -98z" />
<glyph unicode="P" horiz-adv-x="1661" d="M-23 1358l768 88q108 12 159 16t81 4q305 0 473 -153t168 -430q0 -249 -153 -404t-398 -155q-139 0 -255 41.5t-197 121.5l63 -356l328 -199l-1008 95l141 100l146 1094zM578 801q135 57 219 156.5t84 195.5q0 56 -21 82.5t-65 26.5q-30 0 -59 -9t-66 -30z" />
<glyph unicode="Q" horiz-adv-x="1716" d="M47 702q0 154 64.5 292.5t183.5 242.5q129 114 291.5 175t337.5 61q153 0 282 -51.5t230 -151.5q110 -112 169.5 -261.5t59.5 -312.5q0 -113 -33.5 -212t-101.5 -189l313 -631l-588 410q-110 -55 -228 -83t-236 -28q-112 0 -215 31t-193 92q-160 107 -248 269t-88 347z M846 1040q0 -89 69 -155t162 -66q74 0 141.5 40.5t94.5 101.5q-72 125 -177 194t-230 74q-30 -45 -45 -93t-15 -96z" />
<glyph unicode="R" horiz-adv-x="1679" d="M-23 1358l768 88q88 11 151 15.5t112 4.5q304 0 461 -124.5t157 -366.5q0 -201 -134 -327.5t-398 -174.5l571 -389l-670 -225l80 151l-379 461q-23 2 -47.5 6.5t-50.5 9.5l29 -356l225 -199l-846 95l141 100l146 1094zM610 780q33 -18 69 -28.5t66 -10.5q42 0 74.5 47 t32.5 107q0 74 -49 130t-154 101z" />
<glyph unicode="S" horiz-adv-x="1690" d="M16 1094q0 177 156 290t406 113q165 0 322 -59t323 -183l39 203l170 -536q-139 120 -249.5 183.5t-181.5 63.5q-53 0 -82.5 -28.5t-29.5 -79.5q0 -64 63.5 -114t198.5 -91q299 -91 404.5 -177.5t105.5 -221.5q0 -218 -214.5 -359t-551.5 -141q-171 0 -341.5 62.5 t-313.5 177.5v-240l-179 535q124 -101 244.5 -155t218.5 -54q106 0 165 45t59 125q0 75 -47.5 119.5t-211.5 95.5q-239 76 -356 180.5t-117 245.5z" />
<glyph unicode="T" horiz-adv-x="1526" d="M-12 1382l1650 111l-485 -948l-63 723l-279 -1108l424 -203l-916 49l295 92l-335 1190l-95 -874z" />
<glyph unicode="U" horiz-adv-x="1726" d="M55 690q0 185 109 345t332 302l-414 54l850 114q-148 -112 -228.5 -240.5t-80.5 -250.5q0 -120 80.5 -199.5t201.5 -79.5q111 0 184.5 83.5t73.5 209.5q0 87 -35.5 163t-105.5 140l676 103l-355 -195q161 -110 245.5 -258t84.5 -317q0 -87 -25 -166.5t-75 -149.5 q-126 -175 -341 -280t-448 -105q-140 0 -273 57t-239 162q-104 106 -160.5 238t-56.5 270z" />
<glyph unicode="V" horiz-adv-x="1606" d="M-117 1378l1000 107l-150 -127l107 -981l247 930l-120 86l800 55l-229 -131l-494 -1219l222 -151l-969 53l195 131l-429 1186z" />
<glyph unicode="W" horiz-adv-x="2154" d="M-20 1368l1042 92l-240 -147l-147 -879l479 699l307 -691l45 850l-206 107l993 -66l-203 -94l-373 -1100l277 -71l-770 -144l-230 590l-235 -528l-596 32l203 84l-162 1180z" />
<glyph unicode="X" horiz-adv-x="1765" d="M-129 84l137 76l537 631l-309 522l-213 92l876 68l-143 -127l186 -388l203 367l-137 94l835 -67l-178 -60l-575 -518l479 -649l205 -96l-838 -107l145 96l-299 519l-198 -443l86 -94z" />
<glyph unicode="Y" horiz-adv-x="1839" d="M-129 1391l1044 82l-178 -115l269 -610l229 532l-176 90l919 -37l-219 -110l-626 -705l100 -473l254 -115l-1233 68l240 117l122 448l-534 762z" />
<glyph unicode="Z" horiz-adv-x="1608" d="M-70 -66l811 1223l-454 -53l-125 -344l-133 737l1554 -121l-1012 -1102l764 218l221 331l-102 -780z" />
<glyph unicode="[" horiz-adv-x="887" d="M121 1618l864 27l-348 -148l-100 -1632l444 -115l-772 -29z" />
<glyph unicode="\" horiz-adv-x="1108" d="M55 1524l226 174l768 -1835l-99 -99z" />
<glyph unicode="]" horiz-adv-x="887" d="M-98 -279l348 146l100 1632l-444 117l772 29l88 -1897z" />
<glyph unicode="^" d="M16 698l293 676h406l291 -676h-320l-174 430l-174 -430h-322z" />
<glyph unicode="_" d="M0 -104h1024v-213h-1024v213z" />
<glyph unicode="`" d="M39 1591h424l176 -450z" />
<glyph unicode="a" horiz-adv-x="1292" d="M35 467q0 263 125 432.5t315 169.5q144 0 253.5 -75.5t184.5 -225.5l-63 309l430 -47l-147 -67l30 -838l115 -88l-440 -55l75 305q-92 -151 -212.5 -228t-262.5 -77q-170 0 -286.5 139.5t-116.5 345.5zM530 678q0 -88 57.5 -147.5t141.5 -59.5q30 0 62 12.5t65 36.5 q-64 118 -133.5 193.5t-142.5 107.5q-26 -30 -38 -64t-12 -79z" />
<glyph unicode="b" horiz-adv-x="1284" d="M0 -33l160 146l-33 1267l-119 68l651 47l-141 -74l-160 -622q110 131 219.5 194.5t227.5 63.5q182 0 311 -136.5t129 -330.5q0 -241 -183 -396.5t-499 -181.5zM393 528q18 -31 48.5 -46t74.5 -15q78 0 137.5 67t59.5 154q0 34 -12.5 65t-41.5 66q-93 -49 -160 -122 t-106 -169z" />
<glyph unicode="c" horiz-adv-x="1186" d="M37 471q0 126 45 240.5t127 195.5q75 75 169.5 113.5t205.5 38.5q110 0 209.5 -39.5t197.5 -122.5l41 176l58 -442q-38 42 -85.5 64t-101.5 22q-74 0 -123 -50t-49 -126q0 -75 55.5 -129t131.5 -54q52 0 99.5 26.5t102.5 86.5l49 -500l-110 222q-120 -111 -237.5 -163.5 t-246.5 -52.5q-235 0 -386.5 139t-151.5 355z" />
<glyph unicode="d" horiz-adv-x="1290" d="M37 518q0 224 131 377.5t321 153.5q124 0 225 -56.5t187 -173.5l-113 565l-141 109l645 -53l-129 -58l-12 -1276l125 -141l-668 43q-257 17 -414 157.5t-157 352.5zM530 709q0 -88 63 -150.5t148 -62.5q36 0 66.5 13t62.5 42q-52 110 -126.5 180t-170.5 100 q-21 -22 -32 -53.5t-11 -68.5z" />
<glyph unicode="e" horiz-adv-x="1294" d="M37 479q0 120 45.5 231.5t128.5 194.5q80 80 185.5 121t232.5 41q243 0 401 -105t158 -264q0 -160 -145.5 -268t-364.5 -108q-54 0 -101 8.5t-90 25.5q94 -64 184.5 -94.5t186.5 -30.5q117 0 215 52t168 151l37 -457l-90 166q-133 -84 -266 -125t-275 -41 q-277 0 -443.5 137.5t-166.5 364.5zM283 690q32 -26 75 -40.5t88 -14.5q79 0 129 46t50 118q0 35 -10 63t-31 53q-107 -16 -182.5 -72.5t-118.5 -152.5z" />
<glyph unicode="f" horiz-adv-x="1243" d="M16 1010l146 -152l131 4q-10 70 -15.5 136t-5.5 126q0 185 106 280t310 95q98 0 192.5 -27.5t182.5 -80.5l219 108l-235 -399q-25 43 -61.5 64.5t-84.5 21.5q-72 0 -103.5 -57t-31.5 -187q0 -23 0.5 -38t2.5 -29l271 10l205 174l-84 -565l-174 172l-194 -25 q21 -147 50 -281.5t66 -257.5l201 -90l-891 -39l230 168q-45 186 -67 282.5t-36 162.5l-115 -17l-141 -194z" />
<glyph unicode="g" horiz-adv-x="1339" d="M37 510q0 244 134 403.5t337 159.5q112 0 218.5 -57t209.5 -172l-92 229l436 -35l-147 -82q69 -229 104 -419.5t35 -335.5q0 -311 -153.5 -483.5t-430.5 -172.5q-116 0 -228.5 27t-232.5 84l-143 -117l207 426q89 -101 187.5 -153t203.5 -52q119 0 205 98t86 232 q0 52 -11.5 100.5t-35.5 98.5q-89 -143 -197 -210t-250 -67q-188 0 -315 143t-127 355zM555 725q0 -86 58 -150.5t132 -64.5q37 0 70.5 15.5t69.5 49.5q-57 113 -125 184t-152 105q-26 -29 -39.5 -64t-13.5 -75z" />
<glyph unicode="h" horiz-adv-x="1280" d="M-8 -33l155 131l-18 1286l-133 66l704 45l-186 -100l-182 -615q108 141 228.5 210t258.5 69q181 0 303.5 -122t122.5 -304q0 -127 -59.5 -261t-177.5 -274l233 -78l-596 -51q67 66 101 141.5t34 157.5q0 83 -38.5 132t-104.5 49q-79 0 -133.5 -67t-54.5 -167 q0 -53 14.5 -100.5t44.5 -87.5z" />
<glyph unicode="i" horiz-adv-x="924" d="M-57 -20l223 90l70 852l-273 108l998 37l-320 -113l125 -876l213 -66zM109 1298q0 68 106 113t274 45q169 0 274 -45t105 -113t-105 -112.5t-274 -44.5t-274.5 44.5t-105.5 112.5z" />
<glyph unicode="j" horiz-adv-x="856" d="M-350 -461l203 389q65 -82 139 -123t158 -41q109 0 166 63t57 185q0 168 -71.5 410t-201.5 504l-241 104l946 43l-156 -92q83 -236 125.5 -445t42.5 -382q0 -287 -159.5 -447t-444.5 -160q-111 0 -214.5 20.5t-203.5 61.5zM-23 1300q0 69 97.5 113.5t253.5 44.5t255 -45 t99 -113t-98.5 -112.5t-255.5 -44.5q-156 0 -253.5 44.5t-97.5 112.5z" />
<glyph unicode="k" horiz-adv-x="1339" d="M-4 -29l151 148l-30 1241l-105 80l801 57l-160 -115l-135 -727l305 342l-61 123l606 -43l-502 -336l574 -600l-531 -211l80 191l-491 395l137 -444l110 -62z" />
<glyph unicode="l" horiz-adv-x="791" d="M-39 -33l229 131l-18 1149l-207 37l785 221l-183 -1415l226 -82z" />
<glyph unicode="m" horiz-adv-x="1688" d="M-8 -31l168 131l-21 854l-141 60l451 47l-56 -234q69 112 155 172t175 60q85 0 153 -73t91 -191q57 130 140.5 197t188.5 67q139 0 232.5 -130t93.5 -327q0 -134 -43.5 -261t-134.5 -259l182 -74l-510 -39q78 81 116 159t38 157q0 77 -34 124.5t-89 47.5 q-63 0 -111.5 -63t-48.5 -148q0 -47 13.5 -86.5t41.5 -77.5l-391 22q28 36 42 71t14 71q0 80 -37 132t-92 52q-60 0 -104 -60.5t-44 -146.5q0 -63 23 -116t71 -103z" />
<glyph unicode="n" horiz-adv-x="1286" d="M-8 -31l125 131l43 822l-164 82l522 57l-121 -244q126 120 245 181t226 61q166 0 265.5 -109.5t99.5 -292.5q0 -144 -51 -287.5t-150 -279.5l201 -72l-559 -36q56 63 84 129.5t28 134.5q0 91 -43 150t-108 59q-75 0 -124.5 -61.5t-49.5 -155.5q0 -64 20 -115.5t60 -89.5z " />
<glyph unicode="o" horiz-adv-x="1233" d="M37 510q0 246 166.5 402.5t429.5 156.5q248 0 405.5 -152t157.5 -391q0 -82 -21 -153t-63 -133q-83 -123 -215.5 -194t-280.5 -71q-252 0 -415.5 151.5t-163.5 383.5zM266 682q31 -38 70 -56t92 -18q91 0 154 56t63 137q0 32 -10 58t-31 46q-122 -34 -206 -89.5 t-132 -133.5z" />
<glyph unicode="p" horiz-adv-x="1282" d="M0 -465l90 103l49 1316l-137 64l500 49l-113 -250q98 124 210.5 187t236.5 63q175 0 292 -136t117 -341q0 -141 -47.5 -264.5t-134.5 -212.5q-67 -69 -151.5 -104.5t-180.5 -35.5q-119 0 -219.5 51.5t-202.5 163.5l160 -546l139 -64zM416 532q24 -30 52.5 -43.5 t68.5 -13.5q78 0 129 59.5t51 151.5q0 41 -12.5 75t-38.5 66q-98 -63 -160.5 -137t-89.5 -158z" />
<glyph unicode="q" horiz-adv-x="1229" d="M37 467q0 140 46.5 263t131.5 210q54 55 122 85t140 30q118 0 215 -54.5t178 -166.5l-73 223l467 -39l-150 -47l-162 -1166l224 66l61 92l23 -420l-91 119l-708 -129l352 578q-84 -72 -167.5 -106t-176.5 -34q-186 0 -309 140.5t-123 355.5zM557 682q0 -89 52.5 -145 t135.5 -56q38 0 66.5 11.5t52.5 35.5q-56 119 -122.5 192.5t-139.5 98.5q-23 -37 -34 -70t-11 -67z" />
<glyph unicode="r" horiz-adv-x="1208" d="M-14 -20l114 94l56 884l-158 66l506 27l-84 -228q113 118 215.5 175t202.5 57q81 0 149 -33.5t115 -95.5l139 129l-158 -635q-70 86 -152 128t-179 42q-124 0 -203.5 -80.5t-79.5 -204.5q0 -78 37 -146.5t121 -144.5z" />
<glyph unicode="s" horiz-adv-x="1251" d="M-6 -20l129 403q98 -87 189.5 -131.5t168.5 -44.5q64 0 102 33.5t38 91.5q0 60 -40 88.5t-192 52.5q-170 28 -244.5 88t-74.5 168q0 158 129.5 251t349.5 93q124 0 213 -30t166 -97l188 121l-190 -362q-78 70 -148.5 103.5t-138.5 33.5q-62 0 -96.5 -28t-34.5 -77 q0 -89 271 -107q27 -2 42 -3q221 -15 320.5 -81t99.5 -198q0 -164 -161.5 -267.5t-424.5 -103.5q-119 0 -240.5 37t-254.5 113z" />
<glyph unicode="t" horiz-adv-x="1255" d="M8 1116l137 -137l191 6q27 99 56.5 191.5t62.5 179.5l-256 98l876 39l-248 -156q-20 -92 -36.5 -174t-28.5 -159l229 10l156 192l-25 -565l-141 164l-250 -35q-10 -81 -15 -147t-5 -115q0 -111 35 -160t114 -49q76 0 157 45t157 129l73 -502l-149 168 q-109 -85 -220 -126.5t-233 -41.5q-190 0 -304 110t-114 294q0 55 9.5 131t31.5 196l-116 -14l-107 -182z" />
<glyph unicode="u" horiz-adv-x="1352" d="M51 997l580 66q-65 -73 -99 -149.5t-34 -149.5q0 -87 40 -135.5t111 -48.5q83 0 136 57.5t53 148.5q0 57 -21 105t-65 94l548 78l-249 -135q124 -95 183.5 -199.5t59.5 -228.5q0 -94 -35.5 -178t-103.5 -150q-98 -97 -235 -149t-295 -52q-249 0 -408.5 133.5 t-159.5 337.5q0 137 60.5 262.5t183.5 243.5z" />
<glyph unicode="v" horiz-adv-x="1479" d="M-102 985l878 86l-168 -110l115 -607l211 543l-115 98l789 37l-193 -98l-473 -838l203 -119l-932 29l174 92l-334 828z" />
<glyph unicode="w" horiz-adv-x="1985" d="M-74 999l910 62l-193 -92l10 -529l365 521l215 -510l127 491l-156 96l834 23l-164 -92l-262 -879l162 -110l-770 30l133 82l-281 289l-141 -221l149 -135l-682 -45l162 114l-254 836z" />
<glyph unicode="x" horiz-adv-x="1597" d="M-68 27l170 57l344 475l-329 356l-174 54l878 88l-125 -117l103 -238l184 246l-115 76l803 -27l-203 -67l-383 -340l404 -492l170 -39l-924 -92l135 107l-190 340l-133 -334l102 -92z" />
<glyph unicode="y" horiz-adv-x="1358" d="M51 993l604 70q-68 -81 -104.5 -166t-36.5 -160q0 -79 38.5 -129.5t98.5 -50.5q85 0 139 66t54 172q0 70 -15 127t-47 104l518 39l-210 -104q108 -223 162.5 -406t54.5 -324q0 -152 -46 -281.5t-133 -223.5q-83 -91 -191 -139t-230 -48q-115 0 -224 26.5t-213 80.5 l-178 -111l262 422q92 -109 186 -163t191 -54q129 0 207 82t78 219q0 51 -12 100.5t-35 98.5q-76 -118 -187.5 -179t-251.5 -61q-206 0 -338.5 117t-132.5 297q0 138 59.5 264.5t188.5 261.5z" />
<glyph unicode="z" horiz-adv-x="1247" d="M2 -41l528 838l-354 -72l-117 -225l-41 565l1233 -84l-716 -750l512 181l153 241l-53 -590z" />
<glyph unicode="{" horiz-adv-x="887" d="M10 705l297 108q-66 55 -98.5 126.5t-32.5 162.5q0 95 52.5 205.5t154.5 228.5l-320 78l803 39q-132 -120 -198 -260t-66 -299q0 -141 35 -234t113 -164q-84 -88 -122 -190t-38 -238q0 -166 67.5 -303t200.5 -241l-833 26l292 121q-74 94 -112.5 199.5t-38.5 214.5 q0 113 36.5 198.5t112.5 147.5z" />
<glyph unicode="|" d="M328 -342v1708h368v-1708h-368z" />
<glyph unicode="}" horiz-adv-x="887" d="M29 -297q131 119 197.5 259t66.5 300q0 142 -34.5 234t-113.5 163q83 88 121.5 191t38.5 237q0 168 -67 305t-199 240l831 -24l-292 -123q74 -93 113.5 -200t39.5 -214q0 -110 -38 -197.5t-113 -148.5l305 -74l-297 -106q66 -55 98.5 -127.5t32.5 -163.5 q0 -94 -53 -204.5t-154 -227.5l322 -78z" />
<glyph unicode="~" d="M14 608q60 153 138 226t182 73q69 0 198 -55t170 -55q38 0 69.5 28t62.5 88l174 -147q-54 -149 -135 -224t-187 -75q-69 0 -195.5 54t-171.5 54q-36 0 -67.5 -27.5t-61.5 -86.5z" />
<glyph unicode="&#xa1;" horiz-adv-x="1212" d="M-109 41l371 76l176 848l-221 118l793 29l-160 -156l78 -815l284 -155zM244 1354q0 73 104 114t291 41q171 0 279 -44.5t108 -110.5q0 -73 -105.5 -117.5t-281.5 -44.5q-179 0 -287 45t-108 117z" />
<glyph unicode="&#xa2;" horiz-adv-x="1239" d="M57 678q0 230 131 391t344 193l-100 286l-156 103l715 -23l-203 -96l-79 -277q67 -11 141 -44t164 -91l45 154l49 -422q-31 40 -71.5 59t-96.5 19q-78 0 -131 -51t-53 -125q0 -81 55 -134t139 -53q53 0 105.5 29.5t99.5 85.5l43 -504l-108 219q-102 -92 -199.5 -143 t-202.5 -68l141 -299l154 -47l-721 -47l160 111l90 284q-218 40 -336.5 168t-118.5 322z" />
<glyph unicode="&#xa3;" horiz-adv-x="1679" d="M8 1051l82 -172l186 -17q-1 8 -1.5 17t-0.5 28q0 264 163 420t440 156q151 0 288.5 -43.5t268.5 -132.5l174 178l-150 -481q-90 99 -186.5 147.5t-204.5 48.5q-161 0 -245 -92t-99 -285l307 -28l125 178l-53 -522l-62 165l-319 -10q2 -74 12.5 -140.5t30.5 -127.5 q65 16 135.5 23.5t151.5 7.5q110 0 221.5 -7.5t226.5 -21.5l217 262l-182 -602q-120 51 -241.5 74.5t-258.5 23.5q-178 0 -368 -35.5t-406 -109.5l-98 389l170 -195q30 22 59.5 39.5t59.5 32.5q-48 118 -78.5 206.5t-48.5 164.5l-228 -8l-57 -148z" />
<glyph unicode="&#xa4;" horiz-adv-x="1993" d="M0 328l154 -66l301 193q-30 49 -45 107.5t-15 123.5q0 98 39.5 179t118.5 147l-264 202l-142 -53l385 424l-16 -205l205 -270q81 32 162.5 48t165.5 16q65 0 128.5 -10t127.5 -29l331 335v152l363 -383l-193 31l-327 -215q99 -67 148.5 -154.5t49.5 -193.5 q0 -93 -33.5 -171.5t-103.5 -150.5l160 -117l235 64l-491 -486l74 199l-177 209q-85 -35 -174.5 -52.5t-185.5 -17.5q-110 0 -208 30.5t-183 90.5l-238 -260l43 -186zM727 698q0 -96 81 -160.5t204 -64.5q122 0 202 64t80 161q0 99 -81 166.5t-201 67.5q-123 0 -204 -67 t-81 -167z" />
<glyph unicode="&#xa5;" horiz-adv-x="2073" d="M-12 1391l1044 82l-178 -115l266 -610l232 532l-176 90l919 -37l-219 -110l-387 -435l383 -8l117 178l-33 -548l-92 170l-604 -52l-11 -10l101 -473l252 -115l-1231 68l239 117l103 368l-541 -43l-76 -153l-55 604l76 -92l452 -4l-370 530z" />
<glyph unicode="&#xa6;" d="M328 313h368v-655h-368v655zM328 631v735h368v-735h-368z" />
<glyph unicode="&#xa7;" horiz-adv-x="1393" d="M6 -113l166 379q89 -75 172 -114t154 -39q66 0 110.5 36t44.5 89q0 44 -27 76t-89 61h-29q-197 0 -311.5 73t-114.5 197q0 90 51.5 163t149.5 120q-67 38 -101.5 88t-34.5 110q0 158 129.5 251t350.5 93q122 0 211 -30t168 -97l190 119l-240 -348q-47 60 -109 92.5 t-128 32.5q-58 0 -94.5 -28t-36.5 -72q0 -54 52.5 -89.5t135.5 -35.5q24 0 84.5 5t95.5 5q155 0 259 -81t104 -198q0 -89 -46.5 -159.5t-139.5 -122.5q60 -43 90 -95t30 -114q0 -164 -161 -266.5t-424 -102.5q-121 0 -241.5 36t-252.5 112zM461 621q0 -13 3 -25.5t10 -28.5 q7 -1 14 -1.5t20 -0.5q83 0 134.5 44t51.5 114v8q-26 5 -44.5 7.5t-33.5 2.5q-70 0 -112.5 -33t-42.5 -87z" />
<glyph unicode="&#xa8;" d="M-90 1333q0 76 80.5 128t204.5 52q123 0 203.5 -52t80.5 -128t-79.5 -126t-204.5 -50t-205 50t-80 126zM545 1333q0 77 80 128.5t204 51.5q123 0 203 -51.5t80 -128.5q0 -76 -79 -126t-204 -50q-124 0 -204 50t-80 126z" />
<glyph unicode="&#xa9;" horiz-adv-x="555" d="M68 1243q0 88 66.5 154.5t158.5 66.5t158.5 -66.5t66.5 -158.5q0 -94 -67 -159.5t-162 -65.5q-89 0 -155 67.5t-66 161.5zM102 1239q0 -77 56.5 -133.5t134.5 -56.5q79 0 135.5 55.5t56.5 134.5q0 80 -56 135.5t-136 55.5q-79 0 -135 -56.5t-56 -134.5zM178 1241 q0 60 32.5 96.5t86.5 36.5q45 0 72 -23.5t28 -62.5h-54q-3 22 -15.5 33.5t-32.5 11.5q-28 0 -42.5 -23.5t-14.5 -68.5q0 -44 14.5 -67t42.5 -23q21 0 34.5 13.5t14.5 35.5h55q0 -44 -29.5 -71t-78.5 -27q-52 0 -82.5 37.5t-30.5 101.5z" />
<glyph unicode="&#xaa;" horiz-adv-x="979" d="M61 854q0 157 88 260t222 103q100 0 176.5 -45.5t128.5 -135.5l-45 185l325 -29l-102 -41l20 -502l80 -53l-329 -33l51 185q-67 -92 -150.5 -138.5t-181.5 -46.5q-121 0 -202 83.5t-81 207.5zM420 979q0 -48 35.5 -80.5t89.5 -32.5q17 0 35.5 6.5t44.5 20.5 q-40 64 -85 106t-89 58q-16 -16 -23.5 -35t-7.5 -43z" />
<glyph unicode="&#xab;" horiz-adv-x="1597" d="M78 662l545 569l274 -287l-502 -219l486 -258l-160 -408zM709 684l497 547l275 -287l-502 -219l508 -236l-182 -430z" />
<glyph unicode="&#xac;" d="M68 285v321h886v-606h-356v285h-530z" />
<glyph unicode="&#xad;" horiz-adv-x="780" d="M70 872l641 -12l-27 -307l-551 -107z" />
<glyph unicode="&#xae;" horiz-adv-x="555" d="M68 1243q0 88 66.5 154.5t158.5 66.5t158.5 -66.5t66.5 -158.5q0 -94 -67 -159.5t-162 -65.5q-89 0 -155 67.5t-66 161.5zM102 1239q0 -77 56.5 -133.5t134.5 -56.5q79 0 135.5 55.5t56.5 134.5q0 80 -56 135.5t-136 55.5q-79 0 -135 -56.5t-56 -134.5zM203 1118v242h88 q52 0 77 -17t25 -53q0 -24 -13 -41t-37 -24l52 -107h-57l-47 99h-35v-99h-53zM256 1253h35q26 0 37.5 8t11.5 25q0 19 -12 28t-39 9h-33v-70z" />
<glyph unicode="&#xaf;" d="M0 1325v240h1024v-240h-1024z" />
<glyph unicode="&#xb0;" d="M78 1210q0 130 123 218t311 88q189 0 311.5 -87.5t122.5 -218.5q0 -130 -122.5 -217.5t-311.5 -87.5q-188 0 -311 87.5t-123 217.5zM319 1210q0 -64 55 -107.5t138 -43.5t138 43.5t55 107.5q0 65 -55 107.5t-138 42.5t-138 -42.5t-55 -107.5z" />
<glyph unicode="&#xb1;" horiz-adv-x="1706" d="M254 -18v231h1198v-231h-1198zM254 690v232h481v319h238v-319h479v-232h-479v-319h-238v319h-481z" />
<glyph unicode="&#xb2;" horiz-adv-x="1122" d="M-37 549l486 518q61 64 78.5 96t17.5 66q0 35 -25.5 55.5t-68.5 20.5q-79 0 -153 -58t-142 -174l-156 354l137 -129q117 86 232.5 127t238.5 41q182 0 290 -69.5t108 -186.5q0 -89 -54 -154.5t-204 -144.5l-394 -206l623 137l108 186l-79 -424z" />
<glyph unicode="&#xb3;" horiz-adv-x="1202" d="M0 897q117 -97 239 -148t240 -51q94 0 150.5 42.5t56.5 111.5q0 48 -29.5 74t-83.5 26q-30 0 -58 -9t-56 -28l-27 -104l-100 297l88 -53q134 24 193 64t59 106q0 48 -34.5 74t-98.5 26q-94 0 -183.5 -60t-160.5 -171l-119 342l94 -86q129 61 257.5 92t250.5 31 q169 0 278 -58.5t109 -144.5q0 -63 -71.5 -115t-198.5 -82q6 0 19 1t20 1q140 0 231.5 -65t91.5 -162q0 -131 -143.5 -212t-382.5 -81q-141 0 -258 19t-211 57v-78z" />
<glyph unicode="&#xb4;" d="M471 1141l176 450h424z" />
<glyph unicode="&#xb5;" horiz-adv-x="1352" d="M-16 -465l88 103l-15 792v12q0 136 60.5 261.5t183.5 244.5l-250 49l580 66q-66 -76 -99.5 -152t-33.5 -147q0 -87 40 -135.5t111 -48.5q83 0 136 57.5t53 148.5q0 57 -21 105t-65 94l548 78l-249 -135q124 -95 183.5 -199.5t59.5 -228.5q0 -94 -35.5 -178t-103.5 -150 q-101 -98 -236.5 -149.5t-291.5 -51.5q-77 0 -149 15.5t-140 46.5l113 -391l139 -64z" />
<glyph unicode="&#xb6;" horiz-adv-x="1698" d="M43 907q0 284 251.5 442t706.5 158q157 0 327 -8t351 -24l-239 -115l69 -1671l158 -107l-489 -43l36 1737q-47 6 -75.5 8t-51.5 2q-17 0 -40 -1t-29 -1l-37 -1751l-530 51l208 115l100 745q-38 -9 -78.5 -13.5t-82.5 -4.5q-243 0 -399 136t-156 345zM500 1087 q19 -30 47 -44.5t65 -14.5q66 0 111 43t45 105q0 13 -2 25.5t-6 24.5q-99 -4 -163.5 -38.5t-96.5 -100.5z" />
<glyph unicode="&#xb7;" horiz-adv-x="825" d="M100 684q0 72 90.5 125t221.5 53t222 -53.5t91 -124.5q0 -72 -92 -128t-221 -56q-130 0 -221 55.5t-91 128.5z" />
<glyph unicode="&#xb8;" d="M213 -471l61 223q47 -72 95.5 -106.5t101.5 -34.5q55 0 84 23t29 67q0 54 -39.5 83.5t-112.5 29.5q-39 0 -76.5 -7t-70.5 -20l121 358l81 -120l-59 -129q25 9 56 13.5t75 4.5q154 0 249 -60.5t95 -156.5q0 -100 -91.5 -159.5t-248.5 -59.5q-84 0 -157 25t-134 75z" />
<glyph unicode="&#xb9;" horiz-adv-x="756" d="M-33 1247l717 230l-168 -811l180 -103l-678 25l195 71l-25 574z" />
<glyph unicode="&#xba;" horiz-adv-x="981" d="M84 881q0 146 117.5 241t300.5 95q174 0 283.5 -92.5t109.5 -235.5q0 -136 -118.5 -233t-287.5 -97q-176 0 -290.5 92t-114.5 230zM258 987q18 -21 43 -31t59 -10q57 0 96.5 31.5t39.5 75.5q0 17 -6 30t-19 25q-78 -20 -130.5 -49.5t-82.5 -71.5z" />
<glyph unicode="&#xbb;" horiz-adv-x="1597" d="M113 803l180 432l596 -627l-498 -545l-274 285l501 219zM719 827l158 408l643 -604l-545 -568l-250 285l477 219z" />
<glyph unicode="&#xbc;" horiz-adv-x="2537" d="M14 1247l717 230l-168 -811l178 -103l-675 25l194 71l-24 574zM240 100l290 84l762 1159l-196 152l766 -96l-287 -74l-676 -1233l148 -123zM1200 227l537 617l635 45l-113 -60l-84 -358l203 74l57 100l-8 -471l-57 158l-207 -43l55 -226l137 -59l-651 -24l121 96l33 188z M1599 408l275 57l-8 215z" />
<glyph unicode="&#xbd;" horiz-adv-x="2372" d="M-55 1247l714 230l-165 -811l178 -103l-676 25l192 71l-22 574zM170 100l291 84l762 1159l-197 152l766 -96l-289 -74l-674 -1233l148 -123zM1235 -25l487 517q61 65 78 96.5t17 64.5q0 36 -25.5 57t-69.5 21q-79 0 -152.5 -57.5t-142.5 -173.5l-153 352l137 -127 q117 86 232 127t237 41q183 0 290 -69.5t107 -186.5q0 -91 -53.5 -156t-202.5 -143l-393 -207l621 137l108 185l-80 -422z" />
<glyph unicode="&#xbe;" horiz-adv-x="2986" d="M45 897q118 -97 241 -148t240 -51q93 0 149 42.5t56 111.5q0 48 -29.5 74t-83.5 26q-29 0 -56 -8.5t-56 -28.5l-29 -104l-100 297l90 -53q135 26 193.5 65.5t58.5 104.5q0 48 -34.5 74t-98.5 26q-94 0 -182.5 -59.5t-161.5 -171.5l-119 342l92 -86q130 61 258 92t252 31 q170 0 278.5 -58.5t108.5 -144.5q0 -63 -71.5 -115t-198.5 -82q7 1 16 1.5t25 0.5q137 0 228 -64t91 -157q0 -136 -141.5 -217.5t-382.5 -81.5q-139 0 -257.5 19t-213.5 57v-78zM686 100l293 84l762 1159l-199 152l768 -96l-289 -74l-673 -1233l147 -123zM1649 227l536 617 l633 45l-113 -60l-82 -358l203 74l58 100l-9 -471l-59 158l-207 -43l57 -226l136 -59l-650 -24l119 96l33 188zM2048 408l274 57l-8 215z" />
<glyph unicode="&#xbf;" horiz-adv-x="1737" d="M139 442q0 185 150.5 292.5t420.5 115.5l74 188l-223 125l807 -78l-158 -84l66 -288q-315 -25 -443 -92.5t-128 -202.5q0 -101 61 -156t174 -55q148 0 300.5 115t295.5 337l231 -604l-155 99q-177 -84 -356 -125t-361 -41q-206 0 -371.5 55t-275.5 160 q-52 50 -80.5 112.5t-28.5 126.5zM612 1356q0 64 113.5 110.5t282.5 46.5q157 0 273 -49t116 -108q0 -64 -112 -112t-277 -48q-168 0 -282 48t-114 112z" />
<glyph unicode="&#xc0;" horiz-adv-x="1741" d="M-92 6l231 172l307 1194l-174 113l1176 -39l-274 -98l481 -1074l190 -57l-872 -270l223 299l-63 221l-324 -25l-94 -258l141 -110zM354 2017h424l176 -450zM764 698l274 93l-139 399z" />
<glyph unicode="&#xc1;" horiz-adv-x="1741" d="M-92 6l231 172l307 1194l-174 113l1176 -39l-274 -98l481 -1074l190 -57l-872 -270l223 299l-63 221l-324 -25l-94 -258l141 -110zM764 698l274 93l-139 399zM786 1567l176 450h424z" />
<glyph unicode="&#xc2;" horiz-adv-x="1741" d="M-92 6l231 172l307 1194l-174 113l1176 -39l-274 -98l481 -1074l190 -57l-872 -270l223 299l-63 221l-324 -25l-94 -258l141 -110zM446 1556l221 465h314l229 -465l-379 242zM764 698l274 93l-139 399z" />
<glyph unicode="&#xc3;" horiz-adv-x="1741" d="M-92 6l231 172l307 1194l-174 113l1176 -39l-274 -98l481 -1074l190 -57l-872 -270l223 299l-63 221l-324 -25l-94 -258l141 -110zM409 1573q59 166 169.5 273.5t213.5 107.5q65 0 125 -65q6 -6 10 -11q6 -5 16 -16q63 -66 140 -66q101 0 175.5 40.5t127.5 123.5 q-11 -70 -45 -130.5t-96 -117.5q-69 -64 -141.5 -100.5t-129.5 -36.5q-62 0 -132 67l-7 7q-4 4 -12 11q-61 60 -127 60q-89 0 -161 -37t-126 -110zM764 698l274 93l-139 399z" />
<glyph unicode="&#xc4;" horiz-adv-x="1741" d="M-92 6l231 172l307 1194l-174 113l1176 -39l-274 -98l481 -1074l190 -57l-872 -270l223 299l-63 221l-324 -25l-94 -258l141 -110zM225 1759q0 76 80.5 128t204.5 52q123 0 203.5 -52t80.5 -128t-79.5 -126t-204.5 -50t-205 50t-80 126zM764 698l274 93l-139 399z M860 1759q0 77 80 128.5t204 51.5q123 0 203 -51.5t80 -128.5q0 -76 -79 -126t-204 -50q-124 0 -204 50t-80 126z" />
<glyph unicode="&#xc5;" horiz-adv-x="1741" d="M-92 0l231 178l307 1194l-174 113l1176 -39l-274 -98l481 -1074l190 -57l-872 -270l223 299l-63 221l-324 -25l-94 -258l141 -110zM465 1817q0 101 114.5 169t290.5 68t291 -68.5t115 -168.5q0 -101 -114.5 -169.5t-291.5 -68.5t-291 68t-114 170zM649 1817 q0 -54 62 -89.5t159 -35.5t159.5 35.5t62.5 89.5q0 53 -62 89t-160 36q-97 0 -159 -36t-62 -89zM764 698l274 93l-139 399z" />
<glyph unicode="&#xc6;" horiz-adv-x="2206" d="M-84 6l234 176l153 1188l-180 115l1020 -66l887 66l98 -393l-176 192l-516 -102l-41 -308l366 99l86 147l49 -694l-106 205l-301 16l-127 -362l575 -70l240 373l-59 -635l-1284 53l184 230l-53 227l-318 -21l-69 -260l172 -104zM596 721l285 72l-148 403z" />
<glyph unicode="&#xc7;" horiz-adv-x="1610" d="M47 711q0 205 87 374.5t247 276.5q106 71 229.5 106t266.5 35q132 0 245.5 -41t212.5 -125l58 166l102 -547q-66 96 -156 145.5t-194 49.5q-120 0 -193 -70.5t-73 -185.5q0 -122 91 -204.5t228 -82.5q84 0 175 29.5t196 89.5l-107 -694l-41 284q-141 -167 -307.5 -255.5 t-355.5 -96.5l-41 -90q25 10 56 14t77 5q159 0 257.5 -62.5t98.5 -161.5q0 -102 -95 -164.5t-255 -62.5q-85 0 -159.5 26t-139.5 78l-61 -51l63 232q49 -74 99 -110t104 -36q58 0 89.5 24t31.5 68q0 56 -42.5 86.5t-117.5 30.5q-43 0 -81 -7t-73 -22l72 211 q-68 11 -130.5 36.5t-119.5 64.5q-158 107 -251 279t-93 358z" />
<glyph unicode="&#xc8;" horiz-adv-x="1661" d="M-111 27l433 151l-154 1098l-279 108l1567 107l98 -459l-163 168l-482 -2l-73 -305l344 80l102 157l39 -692l-109 172l-305 41l-121 -325l574 -72l266 362l-90 -661zM307 2017h424l176 -450z" />
<glyph unicode="&#xc9;" horiz-adv-x="1661" d="M-111 27l433 151l-154 1098l-279 108l1567 107l98 -459l-163 168l-482 -2l-73 -305l344 80l102 157l39 -692l-109 172l-305 41l-121 -325l574 -72l266 362l-90 -661zM739 1567l176 450h424z" />
<glyph unicode="&#xca;" horiz-adv-x="1661" d="M-111 27l433 151l-154 1098l-279 108l1567 107l98 -459l-163 168l-482 -2l-73 -305l344 80l102 157l39 -692l-109 172l-305 41l-121 -325l574 -72l266 362l-90 -661zM399 1556l221 465h314l229 -465l-379 242z" />
<glyph unicode="&#xcb;" horiz-adv-x="1661" d="M-111 27l433 151l-154 1098l-279 108l1567 107l98 -459l-163 168l-482 -2l-73 -305l344 80l102 157l39 -692l-109 172l-305 41l-121 -325l574 -72l266 362l-90 -661zM178 1759q0 76 80.5 128t204.5 52q123 0 203.5 -52t80.5 -128t-79.5 -126t-204.5 -50t-205 50t-80 126z M813 1759q0 77 80 128.5t204 51.5q123 0 203 -51.5t80 -128.5q0 -76 -79 -126t-204 -50q-124 0 -204 50t-80 126z" />
<glyph unicode="&#xcc;" horiz-adv-x="1108" d="M-23 1473l1207 -101l-449 -129l203 -995l311 -197l-1226 -119l206 154l99 1118zM82 2017h424l176 -450z" />
<glyph unicode="&#xcd;" horiz-adv-x="1108" d="M-23 1473l1207 -101l-449 -129l203 -995l311 -197l-1226 -119l206 154l99 1118zM514 1567l176 450h424z" />
<glyph unicode="&#xce;" horiz-adv-x="1108" d="M-23 1473l1207 -101l-449 -129l203 -995l311 -197l-1226 -119l206 154l99 1118zM174 1556l221 465h314l229 -465l-379 242z" />
<glyph unicode="&#xcf;" horiz-adv-x="1108" d="M-47 1759q0 76 80.5 128t204.5 52q123 0 203.5 -52t80.5 -128t-79.5 -126t-204.5 -50t-205 50t-80 126zM-23 1473l1207 -101l-449 -129l203 -995l311 -197l-1226 -119l206 154l99 1118zM588 1759q0 77 80 128.5t204 51.5q123 0 203 -51.5t80 -128.5q0 -76 -79 -126 t-204 -50q-124 0 -204 50t-80 126z" />
<glyph unicode="&#xd0;" horiz-adv-x="1612" d="M-84 -35l428 160l-76 580l-159 -33l-68 -156l-37 537l86 -101l150 -22l-52 391l-272 182l1034 -110q286 -31 450.5 -202t164.5 -435q0 -330 -234.5 -520.5t-675.5 -221.5zM606 489q191 72 293 174t102 220q0 101 -79.5 188.5t-233.5 155.5l-37 -332l295 -61l-311 -89z " />
<glyph unicode="&#xd1;" horiz-adv-x="1929" d="M12 45l170 115l72 1102l-242 98l840 119l514 -1119l-90 971l-162 109l840 -80l-156 -68l-160 -1171l226 -90l-523 -41l-727 1034l250 -938l264 -145zM547 1573q59 166 169.5 273.5t213.5 107.5q65 0 125 -65q6 -6 10 -11q6 -5 16 -16q63 -66 140 -66q101 0 175.5 40.5 t127.5 123.5q-11 -70 -45 -130.5t-96 -117.5q-69 -64 -141.5 -100.5t-129.5 -36.5q-62 0 -132 67l-7 7q-4 4 -12 11q-61 60 -127 60q-89 0 -161 -37t-126 -110z" />
<glyph unicode="&#xd2;" horiz-adv-x="1712" d="M47 702q0 143 55 272t160 232q129 128 300.5 197.5t359.5 69.5q118 0 220.5 -29.5t188.5 -87.5q154 -104 244 -279.5t90 -369.5q0 -108 -27 -201.5t-82 -173.5q-116 -170 -319 -270.5t-430 -100.5q-121 0 -227.5 31t-196.5 92q-160 108 -248 269.5t-88 348.5zM383 2017 h424l176 -450zM846 1040q0 -90 68.5 -155.5t162.5 -65.5q74 0 140.5 40t95.5 102q-72 124 -176.5 193t-231.5 75q-29 -43 -44 -91t-15 -98z" />
<glyph unicode="&#xd3;" horiz-adv-x="1712" d="M47 702q0 143 55 272t160 232q129 128 300.5 197.5t359.5 69.5q118 0 220.5 -29.5t188.5 -87.5q154 -104 244 -279.5t90 -369.5q0 -108 -27 -201.5t-82 -173.5q-116 -170 -319 -270.5t-430 -100.5q-121 0 -227.5 31t-196.5 92q-160 108 -248 269.5t-88 348.5zM815 1567 l176 450h424zM846 1040q0 -90 68.5 -155.5t162.5 -65.5q74 0 140.5 40t95.5 102q-72 124 -176.5 193t-231.5 75q-29 -43 -44 -91t-15 -98z" />
<glyph unicode="&#xd4;" horiz-adv-x="1712" d="M47 702q0 143 55 272t160 232q129 128 300.5 197.5t359.5 69.5q118 0 220.5 -29.5t188.5 -87.5q154 -104 244 -279.5t90 -369.5q0 -108 -27 -201.5t-82 -173.5q-116 -170 -319 -270.5t-430 -100.5q-121 0 -227.5 31t-196.5 92q-160 108 -248 269.5t-88 348.5zM475 1556 l221 465h314l229 -465l-379 242zM846 1040q0 -90 68.5 -155.5t162.5 -65.5q74 0 140.5 40t95.5 102q-72 124 -176.5 193t-231.5 75q-29 -43 -44 -91t-15 -98z" />
<glyph unicode="&#xd5;" horiz-adv-x="1712" d="M47 702q0 143 55 272t160 232q129 128 300.5 197.5t359.5 69.5q118 0 220.5 -29.5t188.5 -87.5q154 -104 244 -279.5t90 -369.5q0 -108 -27 -201.5t-82 -173.5q-116 -170 -319 -270.5t-430 -100.5q-121 0 -227.5 31t-196.5 92q-160 108 -248 269.5t-88 348.5zM438 1573 q59 166 169.5 273.5t213.5 107.5q65 0 125 -65q6 -6 10 -11q6 -5 16 -16q63 -66 140 -66q101 0 175.5 40.5t127.5 123.5q-11 -70 -45 -130.5t-96 -117.5q-69 -64 -141.5 -100.5t-129.5 -36.5q-62 0 -132 67l-7 7q-4 4 -12 11q-61 60 -127 60q-89 0 -161 -37t-126 -110z M846 1040q0 -90 68.5 -155.5t162.5 -65.5q74 0 140.5 40t95.5 102q-72 124 -176.5 193t-231.5 75q-29 -43 -44 -91t-15 -98z" />
<glyph unicode="&#xd6;" horiz-adv-x="1712" d="M47 702q0 143 55 272t160 232q129 128 300.5 197.5t359.5 69.5q118 0 220.5 -29.5t188.5 -87.5q154 -104 244 -279.5t90 -369.5q0 -108 -27 -201.5t-82 -173.5q-116 -170 -319 -270.5t-430 -100.5q-121 0 -227.5 31t-196.5 92q-160 108 -248 269.5t-88 348.5zM254 1759 q0 76 80.5 128t204.5 52q123 0 203.5 -52t80.5 -128t-79.5 -126t-204.5 -50t-205 50t-80 126zM846 1040q0 -90 68.5 -155.5t162.5 -65.5q74 0 140.5 40t95.5 102q-72 124 -176.5 193t-231.5 75q-29 -43 -44 -91t-15 -98zM889 1759q0 77 80 128.5t204 51.5q123 0 203 -51.5 t80 -128.5q0 -76 -79 -126t-204 -50q-124 0 -204 50t-80 126z" />
<glyph unicode="&#xd7;" horiz-adv-x="1706" d="M268 170l441 440l-441 443l162 161l440 -440l441 440l162 -161l-441 -443l441 -440l-162 -162l-441 441l-440 -441z" />
<glyph unicode="&#xd8;" horiz-adv-x="1712" d="M2 49l207 47l59 82q-110 113 -165.5 245t-55.5 279q0 143 55 272t160 232q129 128 302 197.5t362 69.5q75 0 144 -12.5t132 -37.5l103 144l-62 205l399 -379l-190 39l-70 -113q136 -114 209.5 -274.5t73.5 -342.5q0 -103 -27 -195.5t-82 -172.5q-117 -172 -319 -272.5 t-432 -100.5q-74 0 -143.5 13t-137.5 38l-92 -153l68 -156zM846 1040q0 -90 68.5 -155.5t162.5 -65.5q74 0 140.5 40t95.5 102q-72 124 -176.5 193t-231.5 75q-29 -43 -44 -91t-15 -98z" />
<glyph unicode="&#xd9;" horiz-adv-x="1726" d="M55 690q0 185 109 345t332 302l-414 54l850 114q-148 -112 -228.5 -240.5t-80.5 -250.5q0 -120 80.5 -199.5t201.5 -79.5q111 0 184.5 83.5t73.5 209.5q0 87 -35.5 163t-105.5 140l676 103l-355 -195q161 -110 245.5 -258t84.5 -317q0 -87 -25 -166.5t-75 -149.5 q-126 -175 -341 -280t-448 -105q-140 0 -273 57t-239 162q-104 106 -160.5 238t-56.5 270zM391 2017h424l176 -450z" />
<glyph unicode="&#xda;" horiz-adv-x="1726" d="M55 690q0 185 109 345t332 302l-414 54l850 114q-148 -112 -228.5 -240.5t-80.5 -250.5q0 -120 80.5 -199.5t201.5 -79.5q111 0 184.5 83.5t73.5 209.5q0 87 -35.5 163t-105.5 140l676 103l-355 -195q161 -110 245.5 -258t84.5 -317q0 -87 -25 -166.5t-75 -149.5 q-126 -175 -341 -280t-448 -105q-140 0 -273 57t-239 162q-104 106 -160.5 238t-56.5 270zM823 1567l176 450h424z" />
<glyph unicode="&#xdb;" horiz-adv-x="1726" d="M55 690q0 185 109 345t332 302l-414 54l850 114q-148 -112 -228.5 -240.5t-80.5 -250.5q0 -120 80.5 -199.5t201.5 -79.5q111 0 184.5 83.5t73.5 209.5q0 87 -35.5 163t-105.5 140l676 103l-355 -195q161 -110 245.5 -258t84.5 -317q0 -87 -25 -166.5t-75 -149.5 q-126 -175 -341 -280t-448 -105q-140 0 -273 57t-239 162q-104 106 -160.5 238t-56.5 270zM483 1556l221 465h314l229 -465l-379 242z" />
<glyph unicode="&#xdc;" horiz-adv-x="1726" d="M55 690q0 185 109 345t332 302l-414 54l850 114q-148 -112 -228.5 -240.5t-80.5 -250.5q0 -120 80.5 -199.5t201.5 -79.5q111 0 184.5 83.5t73.5 209.5q0 87 -35.5 163t-105.5 140l676 103l-355 -195q161 -110 245.5 -258t84.5 -317q0 -87 -25 -166.5t-75 -149.5 q-126 -175 -341 -280t-448 -105q-140 0 -273 57t-239 162q-104 106 -160.5 238t-56.5 270zM262 1759q0 76 80.5 128t204.5 52q123 0 203.5 -52t80.5 -128t-79.5 -126t-204.5 -50t-205 50t-80 126zM897 1759q0 77 80 128.5t204 51.5q123 0 203 -51.5t80 -128.5 q0 -76 -79 -126t-204 -50q-124 0 -204 50t-80 126z" />
<glyph unicode="&#xdd;" horiz-adv-x="1839" d="M-129 1391l1044 82l-178 -115l269 -610l229 532l-176 90l919 -37l-219 -110l-626 -705l100 -473l254 -115l-1233 68l240 117l122 448l-534 762zM879 1567l176 450h424z" />
<glyph unicode="&#xde;" horiz-adv-x="1661" d="M-23 1358l908 135l-162 -211q46 10 95.5 15.5t105.5 5.5q350 0 526 -134.5t176 -402.5q0 -229 -153 -370.5t-402 -141.5q-136 0 -250.5 30t-197.5 87l63 -240l328 -199l-1008 95l141 100l146 1094zM578 637q134 57 218.5 157.5t84.5 196.5q0 55 -21 81t-65 26 q-32 0 -61.5 -8.5t-63.5 -28.5z" />
<glyph unicode="&#xdf;" horiz-adv-x="1630" d="M25 -35l223 160q-104 135 -156.5 283t-52.5 307q0 165 57 310t162 251q109 108 260 163.5t334 55.5q290 0 464.5 -100t174.5 -262q0 -80 -56.5 -146.5t-160.5 -107.5q160 -38 244 -126t84 -218q0 -237 -217 -397.5t-564 -170.5q-59 118 -96.5 222.5t-52.5 197.5 q155 3 236 57t81 156q0 69 -47.5 116.5t-118.5 47.5q-59 0 -109.5 -25t-92.5 -75q-8 29 -11.5 60.5t-3.5 66.5q0 48 7.5 91.5t23.5 81.5q12 0 25 -0.5t34 -0.5q96 0 160 48.5t64 121.5q0 58 -48 97.5t-118 39.5q-147 0 -238.5 -142.5t-91.5 -375.5q0 -145 51 -331t148 -396z " />
<glyph unicode="&#xe0;" horiz-adv-x="1292" d="M35 467q0 263 125 432.5t315 169.5q144 0 253.5 -75.5t184.5 -225.5l-63 309l430 -47l-147 -67l30 -838l115 -88l-440 -55l75 305q-92 -151 -212.5 -228t-262.5 -77q-170 0 -286.5 139.5t-116.5 345.5zM174 1591h424l176 -450zM530 678q0 -88 57.5 -147.5t141.5 -59.5 q30 0 62 12.5t65 36.5q-64 118 -133.5 193.5t-142.5 107.5q-26 -30 -38 -64t-12 -79z" />
<glyph unicode="&#xe1;" horiz-adv-x="1292" d="M35 467q0 263 125 432.5t315 169.5q144 0 253.5 -75.5t184.5 -225.5l-63 309l430 -47l-147 -67l30 -838l115 -88l-440 -55l75 305q-92 -151 -212.5 -228t-262.5 -77q-170 0 -286.5 139.5t-116.5 345.5zM530 678q0 -88 57.5 -147.5t141.5 -59.5q30 0 62 12.5t65 36.5 q-64 118 -133.5 193.5t-142.5 107.5q-26 -30 -38 -64t-12 -79zM606 1141l176 450h424z" />
<glyph unicode="&#xe2;" horiz-adv-x="1292" d="M35 467q0 263 125 432.5t315 169.5q144 0 253.5 -75.5t184.5 -225.5l-63 309l430 -47l-147 -67l30 -838l115 -88l-440 -55l75 305q-92 -151 -212.5 -228t-262.5 -77q-170 0 -286.5 139.5t-116.5 345.5zM266 1130l221 465h314l229 -465l-379 242zM530 678 q0 -88 57.5 -147.5t141.5 -59.5q30 0 62 12.5t65 36.5q-64 118 -133.5 193.5t-142.5 107.5q-26 -30 -38 -64t-12 -79z" />
<glyph unicode="&#xe3;" horiz-adv-x="1292" d="M35 467q0 263 125 432.5t315 169.5q144 0 253.5 -75.5t184.5 -225.5l-63 309l430 -47l-147 -67l30 -838l115 -88l-440 -55l75 305q-92 -151 -212.5 -228t-262.5 -77q-170 0 -286.5 139.5t-116.5 345.5zM229 1147q59 166 169.5 273.5t213.5 107.5q65 0 125 -65 q6 -6 10 -11q6 -5 16 -16q63 -66 140 -66q101 0 175.5 40.5t127.5 123.5q-11 -70 -45 -130.5t-96 -117.5q-69 -64 -141.5 -100.5t-129.5 -36.5q-62 0 -132 67l-7 7q-4 4 -12 11q-61 60 -127 60q-89 0 -161 -37t-126 -110zM530 678q0 -88 57.5 -147.5t141.5 -59.5 q30 0 62 12.5t65 36.5q-64 118 -133.5 193.5t-142.5 107.5q-26 -30 -38 -64t-12 -79z" />
<glyph unicode="&#xe4;" horiz-adv-x="1292" d="M35 467q0 263 125 432.5t315 169.5q144 0 253.5 -75.5t184.5 -225.5l-63 309l430 -47l-147 -67l30 -838l115 -88l-440 -55l75 305q-92 -151 -212.5 -228t-262.5 -77q-170 0 -286.5 139.5t-116.5 345.5zM45 1333q0 76 80.5 128t204.5 52q123 0 203.5 -52t80.5 -128 t-79.5 -126t-204.5 -50t-205 50t-80 126zM530 678q0 -88 57.5 -147.5t141.5 -59.5q30 0 62 12.5t65 36.5q-64 118 -133.5 193.5t-142.5 107.5q-26 -30 -38 -64t-12 -79zM680 1333q0 77 80 128.5t204 51.5q123 0 203 -51.5t80 -128.5q0 -76 -79 -126t-204 -50q-124 0 -204 50 t-80 126z" />
<glyph unicode="&#xe5;" horiz-adv-x="1292" d="M35 467q0 263 125 432.5t315 169.5q144 0 253.5 -75.5t184.5 -225.5l-63 309l430 -47l-147 -67l30 -838l115 -88l-440 -55l75 305q-92 -151 -212.5 -228t-262.5 -77q-170 0 -286.5 139.5t-116.5 345.5zM252 1374q0 98 111.5 164t283.5 66q171 0 282 -66t111 -164 t-110.5 -164.5t-282.5 -66.5q-173 0 -284 66t-111 165zM430 1374q0 -52 61.5 -87.5t155.5 -35.5t154.5 35.5t60.5 87.5t-60.5 86.5t-154.5 34.5t-155.5 -34.5t-61.5 -86.5zM530 678q0 -88 57.5 -147.5t141.5 -59.5q30 0 62 12.5t65 36.5q-64 118 -133.5 193.5t-142.5 107.5 q-26 -30 -38 -64t-12 -79z" />
<glyph unicode="&#xe6;" horiz-adv-x="2339" d="M37 477q0 257 129.5 425.5t322.5 168.5q126 0 235.5 -74.5t203.5 -224.5l-68 299l420 4l-143 -127l4 -252q44 169 193.5 272t355.5 103q237 0 392.5 -107.5t155.5 -265.5q0 -165 -139.5 -273t-359.5 -108q-54 0 -103 7.5t-92 21.5q89 -62 181.5 -92.5t195.5 -30.5 q104 0 197.5 50.5t173.5 150.5l35 -451l-89 162q-128 -79 -256.5 -118.5t-263.5 -39.5q-192 0 -348 79t-231 214l-4 -184l118 -109h-403l76 299q-88 -143 -209 -221t-256 -78q-187 0 -305.5 139.5t-118.5 360.5zM530 678q0 -88 57.5 -147.5t141.5 -59.5q30 0 61.5 12 t65.5 37q-65 121 -136 197.5t-140 103.5q-26 -30 -38 -64t-12 -79zM1335 690q33 -26 75.5 -40.5t88.5 -14.5q79 0 128.5 45.5t49.5 118.5q0 35 -9.5 62.5t-31.5 53.5q-106 -17 -181.5 -73t-119.5 -152z" />
<glyph unicode="&#xe7;" horiz-adv-x="1186" d="M37 471q0 126 45 240.5t127 195.5q75 75 169.5 113.5t205.5 38.5q110 0 209.5 -39.5t197.5 -122.5l41 176l58 -442q-38 42 -85.5 64t-101.5 22q-74 0 -123 -50t-49 -126q0 -75 55.5 -129t131.5 -54q52 0 99.5 26.5t102.5 86.5l49 -500l-110 222q-115 -108 -233 -160.5 t-244 -52.5h-35l-39 -84q24 9 55.5 13.5t75.5 4.5q154 0 249 -60.5t95 -156.5q0 -100 -91.5 -159.5t-248.5 -59.5q-84 0 -156 25t-133 75l-59 -49l61 223q48 -72 95.5 -106.5t99.5 -34.5q55 0 85 23.5t30 66.5q0 54 -39.5 83.5t-112.5 29.5q-39 0 -76.5 -7t-70.5 -20l69 207 q-194 50 -296.5 172.5t-102.5 304.5z" />
<glyph unicode="&#xe8;" horiz-adv-x="1294" d="M37 479q0 120 45.5 231.5t128.5 194.5q80 80 185.5 121t232.5 41q243 0 401 -105t158 -264q0 -160 -145.5 -268t-364.5 -108q-54 0 -101 8.5t-90 25.5q94 -64 184.5 -94.5t186.5 -30.5q117 0 215 52t168 151l37 -457l-90 166q-133 -84 -266 -125t-275 -41 q-277 0 -443.5 137.5t-166.5 364.5zM174 1591h424l176 -450zM283 690q32 -26 75 -40.5t88 -14.5q79 0 129 46t50 118q0 35 -10 63t-31 53q-107 -16 -182.5 -72.5t-118.5 -152.5z" />
<glyph unicode="&#xe9;" horiz-adv-x="1294" d="M37 479q0 120 45.5 231.5t128.5 194.5q80 80 185.5 121t232.5 41q243 0 401 -105t158 -264q0 -160 -145.5 -268t-364.5 -108q-54 0 -101 8.5t-90 25.5q94 -64 184.5 -94.5t186.5 -30.5q117 0 215 52t168 151l37 -457l-90 166q-133 -84 -266 -125t-275 -41 q-277 0 -443.5 137.5t-166.5 364.5zM283 690q32 -26 75 -40.5t88 -14.5q79 0 129 46t50 118q0 35 -10 63t-31 53q-107 -16 -182.5 -72.5t-118.5 -152.5zM606 1141l176 450h424z" />
<glyph unicode="&#xea;" horiz-adv-x="1294" d="M37 479q0 120 45.5 231.5t128.5 194.5q80 80 185.5 121t232.5 41q243 0 401 -105t158 -264q0 -160 -145.5 -268t-364.5 -108q-54 0 -101 8.5t-90 25.5q94 -64 184.5 -94.5t186.5 -30.5q117 0 215 52t168 151l37 -457l-90 166q-133 -84 -266 -125t-275 -41 q-277 0 -443.5 137.5t-166.5 364.5zM266 1130l221 465h314l229 -465l-379 242zM283 690q32 -26 75 -40.5t88 -14.5q79 0 129 46t50 118q0 35 -10 63t-31 53q-107 -16 -182.5 -72.5t-118.5 -152.5z" />
<glyph unicode="&#xeb;" horiz-adv-x="1294" d="M37 479q0 120 45.5 231.5t128.5 194.5q80 80 185.5 121t232.5 41q243 0 401 -105t158 -264q0 -160 -145.5 -268t-364.5 -108q-54 0 -101 8.5t-90 25.5q94 -64 184.5 -94.5t186.5 -30.5q117 0 215 52t168 151l37 -457l-90 166q-133 -84 -266 -125t-275 -41 q-277 0 -443.5 137.5t-166.5 364.5zM45 1333q0 76 80.5 128t204.5 52q123 0 203.5 -52t80.5 -128t-79.5 -126t-204.5 -50t-205 50t-80 126zM283 690q32 -26 75 -40.5t88 -14.5q79 0 129 46t50 118q0 35 -10 63t-31 53q-107 -16 -182.5 -72.5t-118.5 -152.5zM680 1333 q0 77 80 128.5t204 51.5q123 0 203 -51.5t80 -128.5q0 -76 -79 -126t-204 -50q-124 0 -204 50t-80 126z" />
<glyph unicode="&#xec;" horiz-adv-x="924" d="M-57 -20l223 90l70 852l-273 108l998 37l-320 -113l125 -876l213 -66zM-10 1591h424l176 -450z" />
<glyph unicode="&#xed;" horiz-adv-x="924" d="M-57 -20l223 90l70 852l-273 108l998 37l-320 -113l125 -876l213 -66zM422 1141l176 450h424z" />
<glyph unicode="&#xee;" horiz-adv-x="924" d="M-57 -20l223 90l70 852l-273 108l998 37l-320 -113l125 -876l213 -66zM82 1130l221 465h314l229 -465l-379 242z" />
<glyph unicode="&#xef;" horiz-adv-x="924" d="M-139 1333q0 76 80.5 128t204.5 52q123 0 203.5 -52t80.5 -128t-79.5 -126t-204.5 -50t-205 50t-80 126zM-57 -20l223 90l70 852l-273 108l998 37l-320 -113l125 -876l213 -66zM496 1333q0 77 80 128.5t204 51.5q123 0 203 -51.5t80 -128.5q0 -76 -79 -126t-204 -50 q-124 0 -204 50t-80 126z" />
<glyph unicode="&#xf0;" horiz-adv-x="1233" d="M37 510q0 214 166.5 351.5t429.5 137.5q44 0 83.5 -4.5t74.5 -13.5q-11 48 -31 95.5t-51 97.5l-254 -115l-144 227l117 -76l180 88q-55 59 -115.5 94t-134.5 52l377 260l-98 -162q56 -35 102 -69t86 -70l254 123l150 -283l-135 105l-152 -70q130 -164 193 -333t63 -353 q0 -117 -20.5 -202t-63.5 -148q-82 -124 -215.5 -195.5t-282.5 -71.5q-252 0 -415.5 151.5t-163.5 383.5zM266 635q30 -38 69.5 -56t92.5 -18q91 0 154 56.5t63 136.5q0 31 -10 56t-31 48q-122 -35 -206 -90.5t-132 -132.5z" />
<glyph unicode="&#xf1;" horiz-adv-x="1286" d="M-8 -31l125 131l43 822l-164 82l522 57l-121 -244q126 120 245 181t226 61q166 0 265.5 -109.5t99.5 -292.5q0 -144 -51 -287.5t-150 -279.5l201 -72l-559 -36q56 63 84 129.5t28 134.5q0 91 -43 150t-108 59q-75 0 -124.5 -61.5t-49.5 -155.5q0 -64 20 -115.5t60 -89.5z M225 1147q59 166 169.5 273.5t213.5 107.5q65 0 125 -65q6 -6 10 -11q6 -5 16 -16q63 -66 140 -66q101 0 175.5 40.5t127.5 123.5q-11 -70 -45 -130.5t-96 -117.5q-69 -64 -141.5 -100.5t-129.5 -36.5q-62 0 -132 67l-7 7q-4 4 -12 11q-61 60 -127 60q-89 0 -161 -37 t-126 -110z" />
<glyph unicode="&#xf2;" horiz-adv-x="1233" d="M37 510q0 246 166.5 402.5t429.5 156.5q248 0 405.5 -152t157.5 -391q0 -82 -21 -153t-63 -133q-83 -123 -215.5 -194t-280.5 -71q-252 0 -415.5 151.5t-163.5 383.5zM143 1591h424l176 -450zM266 682q31 -38 70 -56t92 -18q91 0 154 56t63 137q0 32 -10 58t-31 46 q-122 -34 -206 -89.5t-132 -133.5z" />
<glyph unicode="&#xf3;" horiz-adv-x="1233" d="M37 510q0 246 166.5 402.5t429.5 156.5q248 0 405.5 -152t157.5 -391q0 -82 -21 -153t-63 -133q-83 -123 -215.5 -194t-280.5 -71q-252 0 -415.5 151.5t-163.5 383.5zM266 682q31 -38 70 -56t92 -18q91 0 154 56t63 137q0 32 -10 58t-31 46q-122 -34 -206 -89.5 t-132 -133.5zM575 1141l176 450h424z" />
<glyph unicode="&#xf4;" horiz-adv-x="1233" d="M37 510q0 246 166.5 402.5t429.5 156.5q248 0 405.5 -152t157.5 -391q0 -82 -21 -153t-63 -133q-83 -123 -215.5 -194t-280.5 -71q-252 0 -415.5 151.5t-163.5 383.5zM235 1130l221 465h314l229 -465l-379 242zM266 682q31 -38 70 -56t92 -18q91 0 154 56t63 137 q0 32 -10 58t-31 46q-122 -34 -206 -89.5t-132 -133.5z" />
<glyph unicode="&#xf5;" horiz-adv-x="1233" d="M37 510q0 246 166.5 402.5t429.5 156.5q248 0 405.5 -152t157.5 -391q0 -82 -21 -153t-63 -133q-83 -123 -215.5 -194t-280.5 -71q-252 0 -415.5 151.5t-163.5 383.5zM198 1147q59 166 169.5 273.5t213.5 107.5q65 0 125 -65q6 -6 10 -11q6 -5 16 -16q63 -66 140 -66 q101 0 175.5 40.5t127.5 123.5q-11 -70 -45 -130.5t-96 -117.5q-69 -64 -141.5 -100.5t-129.5 -36.5q-62 0 -132 67l-7 7q-4 4 -12 11q-61 60 -127 60q-89 0 -161 -37t-126 -110zM266 682q31 -38 70 -56t92 -18q91 0 154 56t63 137q0 32 -10 58t-31 46q-122 -34 -206 -89.5 t-132 -133.5z" />
<glyph unicode="&#xf6;" horiz-adv-x="1233" d="M14 1333q0 76 80.5 128t204.5 52q123 0 203.5 -52t80.5 -128t-79.5 -126t-204.5 -50t-205 50t-80 126zM37 510q0 246 166.5 402.5t429.5 156.5q248 0 405.5 -152t157.5 -391q0 -82 -21 -153t-63 -133q-83 -123 -215.5 -194t-280.5 -71q-252 0 -415.5 151.5t-163.5 383.5z M266 682q31 -38 70 -56t92 -18q91 0 154 56t63 137q0 32 -10 58t-31 46q-122 -34 -206 -89.5t-132 -133.5zM649 1333q0 77 80 128.5t204 51.5q123 0 203 -51.5t80 -128.5q0 -76 -79 -126t-204 -50q-124 0 -204 50t-80 126z" />
<glyph unicode="&#xf7;" horiz-adv-x="1706" d="M254 496v231h1198v-231h-1198zM688 205q0 68 49 117t117 49t116 -48.5t48 -117.5q0 -68 -47.5 -116t-116.5 -48t-117.5 48t-48.5 116zM688 1016q0 68 49 117t117 49q67 0 115.5 -49t48.5 -117t-48.5 -116t-117.5 -48t-116.5 48t-47.5 116z" />
<glyph unicode="&#xf8;" horiz-adv-x="1233" d="M-47 84l168 37l37 53q-60 72 -89.5 156t-29.5 180q0 246 166.5 402.5t429.5 156.5q46 0 90.5 -6t89.5 -19l64 91l-56 182l359 -340l-170 35l-29 -47q102 -77 157.5 -191.5t55.5 -249.5q0 -78 -21.5 -150.5t-62.5 -133.5q-83 -123 -215.5 -194t-280.5 -71q-69 0 -132.5 13 t-123.5 39l-59 -97l55 -127zM266 682q30 -38 70.5 -56t93.5 -18q91 0 153 55.5t62 137.5q0 32 -10 58t-31 46q-122 -34 -206 -89.5t-132 -133.5z" />
<glyph unicode="&#xf9;" horiz-adv-x="1352" d="M51 997l580 66q-65 -73 -99 -149.5t-34 -149.5q0 -87 40 -135.5t111 -48.5q83 0 136 57.5t53 148.5q0 57 -21 105t-65 94l548 78l-249 -135q124 -95 183.5 -199.5t59.5 -228.5q0 -94 -35.5 -178t-103.5 -150q-98 -97 -235 -149t-295 -52q-249 0 -408.5 133.5 t-159.5 337.5q0 137 60.5 262.5t183.5 243.5zM203 1591h424l176 -450z" />
<glyph unicode="&#xfa;" horiz-adv-x="1352" d="M51 997l580 66q-65 -73 -99 -149.5t-34 -149.5q0 -87 40 -135.5t111 -48.5q83 0 136 57.5t53 148.5q0 57 -21 105t-65 94l548 78l-249 -135q124 -95 183.5 -199.5t59.5 -228.5q0 -94 -35.5 -178t-103.5 -150q-98 -97 -235 -149t-295 -52q-249 0 -408.5 133.5 t-159.5 337.5q0 137 60.5 262.5t183.5 243.5zM635 1141l176 450h424z" />
<glyph unicode="&#xfb;" horiz-adv-x="1352" d="M51 997l580 66q-65 -73 -99 -149.5t-34 -149.5q0 -87 40 -135.5t111 -48.5q83 0 136 57.5t53 148.5q0 57 -21 105t-65 94l548 78l-249 -135q124 -95 183.5 -199.5t59.5 -228.5q0 -94 -35.5 -178t-103.5 -150q-98 -97 -235 -149t-295 -52q-249 0 -408.5 133.5 t-159.5 337.5q0 137 60.5 262.5t183.5 243.5zM295 1130l221 465h314l229 -465l-379 242z" />
<glyph unicode="&#xfc;" horiz-adv-x="1352" d="M51 997l580 66q-65 -73 -99 -149.5t-34 -149.5q0 -87 40 -135.5t111 -48.5q83 0 136 57.5t53 148.5q0 57 -21 105t-65 94l548 78l-249 -135q124 -95 183.5 -199.5t59.5 -228.5q0 -94 -35.5 -178t-103.5 -150q-98 -97 -235 -149t-295 -52q-249 0 -408.5 133.5 t-159.5 337.5q0 137 60.5 262.5t183.5 243.5zM74 1333q0 76 80.5 128t204.5 52q123 0 203.5 -52t80.5 -128t-79.5 -126t-204.5 -50t-205 50t-80 126zM709 1333q0 77 80 128.5t204 51.5q123 0 203 -51.5t80 -128.5q0 -76 -79 -126t-204 -50q-124 0 -204 50t-80 126z" />
<glyph unicode="&#xfd;" horiz-adv-x="1358" d="M51 993l604 70q-68 -81 -104.5 -166t-36.5 -160q0 -79 38.5 -129.5t98.5 -50.5q85 0 139 66t54 172q0 70 -15 127t-47 104l518 39l-210 -104q108 -223 162.5 -406t54.5 -324q0 -152 -46 -281.5t-133 -223.5q-83 -91 -191 -139t-230 -48q-115 0 -224 26.5t-213 80.5 l-178 -111l262 422q92 -109 186 -163t191 -54q129 0 207 82t78 219q0 51 -12 100.5t-35 98.5q-76 -118 -187.5 -179t-251.5 -61q-206 0 -338.5 117t-132.5 297q0 138 59.5 264.5t188.5 261.5zM639 1141l176 450h424z" />
<glyph unicode="&#xfe;" horiz-adv-x="1282" d="M0 -465l90 103l49 1619l-137 64l500 166l-113 -670q98 124 210.5 187t236.5 63q175 0 292 -136t117 -341q0 -141 -47.5 -264.5t-134.5 -212.5q-67 -69 -151.5 -104.5t-180.5 -35.5q-119 0 -219.5 51.5t-202.5 163.5l160 -546l139 -64zM416 532q24 -30 52.5 -43.5 t68.5 -13.5q78 0 129 59.5t51 151.5q0 41 -12.5 75t-38.5 66q-98 -63 -160.5 -137t-89.5 -158z" />
<glyph unicode="&#xff;" horiz-adv-x="1358" d="M51 993l604 70q-68 -81 -104.5 -166t-36.5 -160q0 -79 38.5 -129.5t98.5 -50.5q85 0 139 66t54 172q0 70 -15 127t-47 104l518 39l-210 -104q108 -223 162.5 -406t54.5 -324q0 -152 -46 -281.5t-133 -223.5q-83 -91 -191 -139t-230 -48q-115 0 -224 26.5t-213 80.5 l-178 -111l262 422q92 -109 186 -163t191 -54q129 0 207 82t78 219q0 51 -12 100.5t-35 98.5q-76 -118 -187.5 -179t-251.5 -61q-206 0 -338.5 117t-132.5 297q0 138 59.5 264.5t188.5 261.5zM78 1333q0 76 80.5 128t204.5 52q123 0 203.5 -52t80.5 -128t-79.5 -126 t-204.5 -50t-205 50t-80 126zM713 1333q0 77 80 128.5t204 51.5q123 0 203 -51.5t80 -128.5q0 -76 -79 -126t-204 -50q-124 0 -204 50t-80 126z" />
<glyph unicode="&#x152;" horiz-adv-x="2552" d="M47 696q0 191 89 351.5t255 269.5q120 79 253.5 120.5t266.5 41.5q91 0 177 -19.5t174 -58.5l1118 78l96 -396l-176 203l-467 -69l-84 -326l350 86l109 160l39 -725l-105 223l-305 22l-129 -366l571 -74l246 389l-69 -647l-1270 78q-100 -39 -200 -58.5t-200 -19.5 q-147 0 -281.5 55.5t-240.5 159.5q-106 106 -161.5 239.5t-55.5 282.5zM842 1040q0 -89 69 -155t162 -66q73 0 140 40t96 102q-75 126 -179 194.5t-228 73.5q-30 -43 -45 -91t-15 -98z" />
<glyph unicode="&#x153;" horiz-adv-x="2195" d="M37 510q0 249 170 405t442 156q130 0 229.5 -46t192.5 -151q65 93 186 145t273 52q237 0 397 -106t160 -258q0 -64 -26 -122t-74 -106q-76 -72 -174.5 -111.5t-202.5 -39.5q-58 0 -114 7.5t-112 22.5q101 -62 194.5 -92t182.5 -30q105 0 200.5 52t182.5 156l41 -462 l-92 165q-146 -86 -281.5 -129t-265.5 -43q-139 0 -261 44t-230 135q-109 -93 -216 -136t-227 -43q-251 0 -413 150.5t-162 384.5zM266 682q31 -38 70 -56t94 -18q90 0 152.5 56t62.5 137q0 31 -10 56.5t-31 47.5q-122 -34 -206 -89.5t-132 -133.5zM1184 690 q33 -26 74.5 -40.5t87.5 -14.5q79 0 128.5 45.5t49.5 118.5q0 35 -10 62.5t-31 53.5q-109 -18 -183.5 -74.5t-115.5 -150.5z" />
<glyph unicode="&#x178;" horiz-adv-x="1839" d="M-129 1391l1044 82l-178 -115l269 -610l229 532l-176 90l919 -37l-219 -110l-626 -705l100 -473l254 -115l-1233 68l240 117l122 448l-534 762zM318 1759q0 76 80.5 128t204.5 52q123 0 203.5 -52t80.5 -128t-79.5 -126t-204.5 -50t-205 50t-80 126zM953 1759 q0 77 80 128.5t204 51.5q123 0 203 -51.5t80 -128.5q0 -76 -79 -126t-204 -50q-124 0 -204 50t-80 126z" />
<glyph unicode="&#x2c6;" d="M131 1130l221 465h314l229 -465l-379 242z" />
<glyph unicode="&#x2dc;" d="M94 1147q59 166 169.5 273.5t213.5 107.5q65 0 125 -65q6 -6 10 -11q6 -5 16 -16q63 -66 140 -66q101 0 175.5 40.5t127.5 123.5q-11 -70 -45 -130.5t-96 -117.5q-69 -64 -141.5 -100.5t-129.5 -36.5q-62 0 -132 67l-7 7q-4 4 -12 11q-61 60 -127 60q-89 0 -161 -37 t-126 -110z" />
<glyph unicode="&#x2000;" horiz-adv-x="1027" />
<glyph unicode="&#x2001;" horiz-adv-x="2054" />
<glyph unicode="&#x2002;" horiz-adv-x="1027" />
<glyph unicode="&#x2003;" horiz-adv-x="2054" />
<glyph unicode="&#x2004;" horiz-adv-x="684" />
<glyph unicode="&#x2005;" horiz-adv-x="513" />
<glyph unicode="&#x2006;" horiz-adv-x="342" />
<glyph unicode="&#x2007;" horiz-adv-x="342" />
<glyph unicode="&#x2008;" horiz-adv-x="256" />
<glyph unicode="&#x2009;" horiz-adv-x="410" />
<glyph unicode="&#x200a;" horiz-adv-x="114" />
<glyph unicode="&#x2010;" horiz-adv-x="780" d="M70 872l641 -12l-27 -307l-551 -107z" />
<glyph unicode="&#x2011;" horiz-adv-x="780" d="M70 872l641 -12l-27 -307l-551 -107z" />
<glyph unicode="&#x2012;" horiz-adv-x="780" d="M70 872l641 -12l-27 -307l-551 -107z" />
<glyph unicode="&#x2013;" horiz-adv-x="780" d="M70 872l641 -12l-27 -307l-551 -107z" />
<glyph unicode="&#x2014;" horiz-adv-x="1677" d="M70 825l1538 -8l-27 -239l-1479 -136z" />
<glyph unicode="&#x2018;" horiz-adv-x="731" d="M96 1098q0 24 12.5 51.5t41.5 64.5l389 498l-119 -461q99 -16 157 -57.5t58 -95.5q0 -63 -78 -109.5t-190 -46.5q-114 0 -192.5 46.5t-78.5 109.5z" />
<glyph unicode="&#x2019;" horiz-adv-x="731" d="M96 1323q0 63 78 109.5t191 46.5t191.5 -46.5t78.5 -109.5q0 -25 -12.5 -52.5t-40.5 -64.5l-389 -497l118 460q-97 15 -156 57.5t-59 96.5z" />
<glyph unicode="&#x201a;" horiz-adv-x="731" d="M96 156q0 63 78.5 110t190.5 47q113 0 191.5 -47t78.5 -110q0 -25 -12.5 -52.5t-40.5 -64.5l-389 -498l118 461q-99 16 -157 58t-58 96z" />
<glyph unicode="&#x201c;" horiz-adv-x="1315" d="M96 1098q0 24 12.5 51.5t41.5 64.5l389 498l-119 -461q99 -16 157 -57.5t58 -95.5q0 -63 -78 -109.5t-190 -46.5q-114 0 -192.5 46.5t-78.5 109.5zM678 1098q0 23 12.5 50t42.5 66l389 498l-118 -461q97 -16 156 -58t59 -95q0 -63 -77.5 -109.5t-191.5 -46.5 q-113 0 -192.5 47t-79.5 109z" />
<glyph unicode="&#x201d;" horiz-adv-x="1315" d="M96 1323q0 63 78 109.5t191 46.5t191.5 -46.5t78.5 -109.5q0 -25 -12.5 -52.5t-40.5 -64.5l-389 -497l118 460q-97 15 -156 57.5t-59 96.5zM678 1323q0 63 78.5 109.5t191.5 46.5t192 -47t79 -109q0 -25 -13 -53t-41 -64l-389 -497l119 460q-97 15 -157 58.5t-60 95.5z " />
<glyph unicode="&#x201e;" horiz-adv-x="1315" d="M96 156q0 63 78.5 110t190.5 47q113 0 191.5 -47t78.5 -110q0 -25 -12.5 -52.5t-40.5 -64.5l-389 -498l118 461q-99 16 -157 58t-58 96zM678 156q0 62 79 109.5t191 47.5q113 0 192 -47.5t79 -109.5q0 -25 -13 -53t-41 -64l-389 -498l119 461q-98 16 -157.5 58.5 t-59.5 95.5z" />
<glyph unicode="&#x2022;" horiz-adv-x="1366" d="M436 682q0 103 71.5 174.5t174.5 71.5q102 0 174 -72t72 -174q0 -103 -71.5 -174.5t-174.5 -71.5t-174.5 71.5t-71.5 174.5z" />
<glyph unicode="&#x2026;" horiz-adv-x="2476" d="M127 170q0 65 82.5 113.5t202.5 48.5q119 0 201.5 -49t82.5 -113q0 -66 -84 -118t-200 -52q-118 0 -201.5 51.5t-83.5 118.5zM952 170q0 65 82.5 113.5t202.5 48.5q119 0 202 -49t83 -113q0 -66 -84 -118t-201 -52q-118 0 -201.5 51.5t-83.5 118.5zM1778 170 q0 65 82 113.5t200 48.5q120 0 203.5 -49t83.5 -113q0 -66 -85 -118t-202 -52t-199.5 51.5t-82.5 118.5z" />
<glyph unicode="&#x202f;" horiz-adv-x="410" />
<glyph unicode="&#x2039;" horiz-adv-x="1014" d="M78 662l545 569l274 -287l-502 -219l508 -236l-182 -430z" />
<glyph unicode="&#x203a;" horiz-adv-x="1014" d="M113 803l180 432l643 -604l-545 -568l-274 285l501 219z" />
<glyph unicode="&#x205f;" horiz-adv-x="513" />
<glyph unicode="&#x20ac;" horiz-adv-x="1726" d="M109 634l86 -101l48 5q-22 88 -22 173q0 94 20 181l-46 3l-86 -101l47 487l68 -156l97 -28q108 191 286 300q174 106 366 106q249 0 416 -136l58 166l102 -597q-216 258 -524 258q-205 0 -335 -203l603 -174l-642 46q-11 -60 -11 -129q0 -84 19 -155l634 62l-584 -181 q101 -109 287 -109q187 0 337 76q111 55 204 154l106 126l-107 -694l-41 264q-142 -169 -254 -233q-135 -79 -330 -79q-182 0 -343 107q-152 101 -246 268l-88 -27l-68 -156z" />
<glyph unicode="&#x2122;" horiz-adv-x="598" d="M14 1397v49h209v-49h-73v-195h-60v195h-76zM272 1202v244h84l58 -148l53 148h84v-244h-57v182l-68 -182h-27l-69 182v-182h-58z" />
<glyph unicode="&#x25fc;" horiz-adv-x="1055" d="M0 0v1055h1055v-1055h-1055z" />
</font>
</defs>
</svg>
